<svg version="1.1" id="Layer_1" xmlns="http://www.w3.org/2000/svg" xmlns:xlink="http://www.w3.org/1999/xlink" x="0px" y="0px"
	 width="100%" viewBox="0 0 225 225" enable-background="new 0 0 225 225" xml:space="preserve">
<path fill="#FEFEFE" opacity="1.000000" stroke="none" 
	d="
M226.000000,83.000000 
	C226.000000,131.000000 226.000000,178.500000 226.000000,226.000000 
	C151.000000,226.000000 76.000000,226.000000 1.000000,226.000000 
	C1.000000,151.000000 1.000000,76.000000 1.000000,1.000000 
	C76.000000,1.000000 151.000000,1.000000 226.000000,1.000000 
	C226.000000,28.166666 226.000000,55.333332 226.000000,83.000000 
M38.715370,80.527596 
	C38.773354,80.695969 38.831337,80.864349 38.673813,81.945732 
	C38.658569,116.988609 38.637009,152.031479 38.647884,187.074356 
	C38.648396,188.721741 38.937675,190.369019 39.015186,192.502258 
	C39.015186,192.502258 39.194038,192.960602 39.232304,193.666000 
	C42.963932,203.181503 48.646976,207.109573 59.013203,207.117889 
	C94.627357,207.146484 130.248947,206.707932 165.852127,207.334000 
	C180.346893,207.588882 188.972076,198.632507 188.546463,184.848480 
	C187.889343,163.566818 188.404434,142.249878 188.362045,120.948029 
	C188.335571,107.642853 188.198257,94.337891 188.284805,80.526222 
	C188.223312,80.358574 188.161819,80.190926 188.315491,79.500755 
	C188.260010,79.320755 188.204514,79.140747 188.407715,78.057907 
	C188.240112,63.699665 188.072525,49.341423 187.978622,34.496876 
	C187.978622,34.496876 187.784348,34.045021 187.768509,33.341782 
	C184.064270,24.084637 178.344666,19.885788 169.002411,19.876120 
	C131.932938,19.837757 94.863342,19.832788 57.793877,19.879738 
	C48.314438,19.891743 42.080471,24.758162 39.022095,34.492382 
	C39.022095,34.492382 39.095242,34.980499 38.843319,35.891914 
	C38.845875,50.249702 38.848427,64.607491 38.684757,79.504555 
	C38.756481,79.678444 38.828209,79.852341 38.715370,80.527596 
z"/>
<path fill="#626262" opacity="1.000000" stroke="none" 
	d="
M188.110672,81.032837 
	C188.198257,94.337891 188.335571,107.642853 188.362045,120.948029 
	C188.404434,142.249878 187.889343,163.566818 188.546463,184.848480 
	C188.972076,198.632507 180.346893,207.588882 165.852127,207.334000 
	C130.248947,206.707932 94.627357,207.146484 59.013203,207.117889 
	C48.646976,207.109573 42.963932,203.181503 39.353096,193.214127 
	C39.346748,192.513626 39.219612,192.264984 39.092472,192.016357 
	C38.937675,190.369019 38.648396,188.721741 38.647884,187.074356 
	C38.637009,152.031479 38.658569,116.988609 39.257992,81.479141 
	C89.265007,81.019302 138.687836,81.026070 188.110672,81.032837 
M118.382401,121.335594 
	C118.277298,123.312042 118.088013,125.288200 118.081329,127.264977 
	C118.048050,137.105225 118.980553,138.417084 128.752045,137.887451 
	C143.696564,137.077438 141.697098,136.062027 141.795776,124.218735 
	C141.829529,120.168259 139.891769,118.051041 135.762360,118.065910 
	C131.787109,118.080223 127.788879,117.821655 123.846909,118.184479 
	C122.100578,118.345215 120.467957,119.741287 118.382401,121.335594 
M107.845245,135.183319 
	C108.162483,130.788315 108.563194,126.396355 108.723167,121.995636 
	C108.753426,121.163155 107.839172,119.563301 107.340683,119.555222 
	C100.468170,119.443840 93.592117,119.547478 86.717102,119.616142 
	C86.600044,119.617317 86.474663,119.829865 86.370819,119.958084 
	C83.960297,122.934639 84.947914,134.127014 87.887016,136.721924 
	C88.457512,137.225616 89.237526,137.942612 89.849541,137.878616 
	C95.665154,137.270630 101.465355,136.515198 107.845245,135.183319 
M165.007477,109.831482 
	C166.286041,109.536751 167.565414,108.990440 168.843002,108.994659 
	C172.611877,109.007103 174.681473,106.882347 174.579102,103.515144 
	C174.441391,98.985336 176.789566,93.607307 171.339066,90.394028 
	C170.559952,89.934715 169.397568,90.065796 168.409073,90.034744 
	C166.745697,89.982491 165.079529,90.018845 163.414536,90.018814 
	C150.360855,90.018593 150.154861,90.230789 151.007614,103.552765 
	C151.270126,107.653915 153.360352,109.946518 157.624039,109.942436 
	C159.788467,109.940361 161.952881,109.928421 165.007477,109.831482 
M120.422104,108.219246 
	C121.515778,108.788681 122.627151,109.875122 123.700081,109.838417 
	C128.446899,109.675995 133.338989,109.764236 137.844482,108.536224 
	C139.613129,108.054169 141.533768,104.383308 141.575882,102.130844 
	C141.652161,98.051910 143.931290,92.884422 138.287247,90.278748 
	C137.718246,90.016052 136.990234,90.034050 136.335526,90.031113 
	C132.027664,90.011757 127.695938,89.762459 123.423531,90.152573 
	C121.740173,90.306290 118.827904,91.879776 118.807068,92.856483 
	C118.701653,97.798958 119.363487,102.757797 120.422104,108.219246 
M102.388489,108.939514 
	C108.188103,108.377815 111.812805,97.530991 108.011070,92.114113 
	C105.791611,88.951729 88.211838,89.029045 86.101440,92.210464 
	C84.118790,95.199310 85.023499,105.601128 87.582130,108.159889 
	C88.322739,108.900551 89.377075,109.857079 90.262199,109.831627 
	C94.017357,109.723625 97.762978,109.283501 102.388489,108.939514 
M76.003960,130.226166 
	C75.993553,127.733772 76.465965,125.105362 75.814651,122.793533 
	C75.324326,121.053101 73.517426,118.565987 72.081078,118.411201 
	C66.991432,117.862762 61.806755,118.084442 56.664398,118.232864 
	C55.652775,118.262062 54.434460,119.053993 53.716309,119.856453 
	C51.470455,122.366013 52.433998,134.518875 55.083530,136.725739 
	C55.964710,137.459686 57.345676,137.870789 58.520584,137.922791 
	C62.003483,138.076981 65.499359,137.907776 68.986839,137.996231 
	C73.748665,138.116989 75.923264,135.715805 76.003960,130.226166 
M141.780319,151.140213 
	C140.435165,144.099808 134.809784,146.289764 130.563522,146.221588 
	C117.708496,146.015167 117.514557,146.410233 118.032257,159.297104 
	C118.188911,163.196548 119.797577,165.186829 123.810272,165.018127 
	C125.469818,164.948364 127.134911,165.019577 128.797363,165.008881 
	C141.128418,164.929581 142.096527,167.111115 141.780319,151.140213 
M103.108200,165.007706 
	C107.448868,165.248093 109.079079,162.945602 108.946037,158.883133 
	C108.869926,156.559113 108.907829,154.230316 108.936035,151.904175 
	C108.980667,148.224152 107.071838,146.299652 103.510956,146.190659 
	C99.194527,146.058533 94.784149,145.659927 90.588188,146.383820 
	C88.593498,146.727951 85.500916,149.416000 85.511406,151.025253 
	C85.541588,155.657501 82.834076,161.227386 88.289024,164.729279 
	C89.141769,165.276703 90.562584,164.991074 91.721428,165.000153 
	C95.210945,165.027512 98.700806,165.010162 103.108200,165.007706 
M118.064735,186.266968 
	C118.377335,192.404053 119.036537,193.038940 125.160759,193.078156 
	C126.655113,193.087723 128.149628,193.071564 129.643982,193.081039 
	C141.628159,193.156937 142.007446,194.577072 141.813385,180.304230 
	C141.760895,176.443192 139.920151,174.382278 136.098358,174.287689 
	C131.949768,174.185013 127.795128,174.188217 123.646172,174.281204 
	C120.085205,174.360992 118.126244,176.228256 118.072937,179.878998 
	C118.046272,181.705139 118.065941,183.531937 118.064735,186.266968 
M97.486359,174.249985 
	C95.328331,174.253448 92.949684,173.685425 91.070396,174.410919 
	C88.917656,175.241989 85.655754,177.162613 85.597038,178.712936 
	C85.420219,183.381668 83.062332,188.740829 87.844894,192.663712 
	C88.186539,192.943924 88.787193,193.001434 89.268326,193.004227 
	C94.413651,193.033997 99.565857,193.174820 104.699738,192.934296 
	C105.928719,192.876709 108.066055,191.595016 108.131325,190.748749 
	C108.481911,186.202667 108.583656,181.588028 108.116516,177.064682 
	C108.006569,176.000107 105.473076,174.818985 103.865891,174.376266 
	C102.166824,173.908234 100.242538,174.257843 97.486359,174.249985 
M66.036194,109.837234 
	C66.641418,109.571983 67.235367,109.109009 67.853706,109.073746 
	C71.706993,108.854004 76.017036,109.234398 75.960075,103.521439 
	C75.922417,99.743546 76.224533,95.736542 75.079483,92.258461 
	C73.918175,88.730988 54.236164,88.754921 53.588390,92.238403 
	C52.687424,97.083473 53.341358,102.303284 53.976677,107.280106 
	C54.112499,108.344086 56.934624,109.456612 58.671940,109.823410 
	C60.740547,110.260170 62.973801,109.917091 66.036194,109.837234 
M75.025826,191.434799 
	C75.288513,186.871140 75.872414,182.288284 75.601639,177.756500 
	C75.528435,176.531372 72.947052,174.627975 71.377892,174.476532 
	C66.779640,174.032791 62.106079,174.179077 57.472397,174.360016 
	C54.409611,174.479584 52.294456,176.355469 52.532200,179.455673 
	C52.879353,183.982452 50.335842,189.205643 55.283939,192.794342 
	C55.406639,192.883331 55.604816,192.906769 55.765141,192.899765 
	C61.982071,192.628784 68.198685,192.350693 75.025826,191.434799 
M56.204754,164.913498 
	C58.691319,164.943954 61.177963,164.969086 63.664436,165.005737 
	C77.389870,165.208038 76.022522,165.806442 75.973610,151.084137 
	C75.971970,150.591644 76.019768,149.977753 75.761856,149.630234 
	C75.005058,148.610550 74.141296,146.909302 73.255989,146.868988 
	C67.352371,146.600296 61.431549,146.649628 55.518303,146.734268 
	C54.842487,146.743942 54.018711,147.487167 53.536865,148.103836 
	C51.178341,151.122330 52.405972,161.877777 56.204754,164.913498 
M174.226425,123.813248 
	C174.406876,119.836731 172.503845,117.984947 168.530151,118.058220 
	C164.536789,118.131866 160.470901,117.639816 156.575562,118.263016 
	C154.583145,118.581772 151.698563,120.492760 151.261276,122.205872 
	C148.312668,133.757339 150.959213,136.984924 162.573746,136.984909 
	C174.228241,136.984894 174.228241,136.984894 174.226425,123.813248 
M169.851822,146.216904 
	C165.532379,146.194504 161.145813,145.717834 156.921906,146.341965 
	C154.819946,146.652557 151.719727,148.666443 151.287430,150.447739 
	C148.436234,162.195709 150.838333,165.016022 162.706863,165.016144 
	C174.363297,165.016266 174.340134,165.016449 174.245026,153.183426 
	C174.221649,150.274094 174.353851,147.388702 169.851822,146.216904 
M150.997787,184.468109 
	C151.237152,188.065720 149.744232,192.739059 155.740204,192.996170 
	C160.374603,193.194901 165.083069,193.467438 169.636185,192.831116 
	C171.338684,192.593170 173.974670,189.901337 174.007385,188.284302 
	C174.285721,174.527802 176.059906,173.906799 161.374329,174.192795 
	C161.042816,174.199249 160.711075,174.193192 160.379440,174.193665 
	C151.897186,174.205734 151.008377,175.092285 150.997787,184.468109 
z"/>
<path fill="#434343" opacity="1.000000" stroke="none" 
	d="
M188.197739,80.779526 
	C138.687836,81.026070 89.265007,81.019302 39.365746,81.022636 
	C38.831337,80.864349 38.773354,80.695969 38.985916,80.174614 
	C39.121304,79.536179 38.986141,79.250732 38.850983,78.965279 
	C38.848427,64.607491 38.845875,50.249702 39.124741,35.364319 
	C39.473488,34.745705 39.617744,34.614712 39.594810,34.570583 
	C39.495541,34.379532 39.347416,34.213860 39.217064,34.038956 
	C42.080471,24.758162 48.314438,19.891743 57.793877,19.879738 
	C94.863342,19.832788 131.932938,19.837757 169.002411,19.876120 
	C178.344666,19.885788 184.064270,24.084637 187.640518,33.796246 
	C187.643326,34.494869 187.774124,34.739025 187.904938,34.983185 
	C188.072525,49.341423 188.240112,63.699665 188.094116,78.602173 
	C187.698822,79.254906 187.528427,79.434021 187.549576,79.460602 
	C187.712204,79.664848 187.912033,79.839462 188.100327,80.023285 
	C188.161819,80.190926 188.223312,80.358574 188.197739,80.779526 
M157.491135,33.931557 
	C124.843277,33.931763 92.195412,33.921722 59.547573,33.941666 
	C53.706993,33.945232 52.798496,34.846653 52.752300,40.546597 
	C52.703701,46.542747 52.733597,52.539608 52.743000,58.536137 
	C52.754841,66.087555 53.470367,66.813522 61.011826,66.815239 
	C90.494835,66.821953 119.977852,66.818306 149.460861,66.817726 
	C155.790543,66.817604 162.120377,66.840561 168.449829,66.801727 
	C171.889069,66.780632 174.261459,65.516617 174.247833,61.570995 
	C174.221939,54.075500 174.245316,46.579838 174.246902,39.084248 
	C174.247635,35.572552 172.463058,33.907009 168.979568,33.932255 
	C165.481781,33.957607 161.983658,33.933750 157.491135,33.931557 
z"/>
<path fill="#595959" opacity="1.000000" stroke="none" 
	d="
M39.053829,192.259308 
	C39.219612,192.264984 39.346748,192.513626 39.333961,192.861420 
	C39.194038,192.960602 39.015186,192.502258 39.053829,192.259308 
z"/>
<path fill="#363636" opacity="1.000000" stroke="none" 
	d="
M188.207916,79.762024 
	C187.912033,79.839462 187.712204,79.664848 187.549576,79.460602 
	C187.528427,79.434021 187.698822,79.254906 187.964752,79.053589 
	C188.204514,79.140747 188.260010,79.320755 188.207916,79.762024 
z"/>
<path fill="#363636" opacity="1.000000" stroke="none" 
	d="
M187.941772,34.740028 
	C187.774124,34.739025 187.643326,34.494869 187.648438,34.147865 
	C187.784348,34.045021 187.978622,34.496876 187.941772,34.740028 
z"/>
<path fill="#363636" opacity="1.000000" stroke="none" 
	d="
M39.119579,34.265671 
	C39.347416,34.213860 39.495541,34.379532 39.594810,34.570583 
	C39.617744,34.614712 39.473488,34.745705 39.250702,34.908611 
	C39.095242,34.980499 39.022095,34.492382 39.119579,34.265671 
z"/>
<path fill="#363636" opacity="1.000000" stroke="none" 
	d="
M38.767868,79.234917 
	C38.986141,79.250732 39.121304,79.536179 39.078201,79.923935 
	C38.828209,79.852341 38.756481,79.678444 38.767868,79.234917 
z"/>
<path fill="#DDDDDD" opacity="1.000000" stroke="none" 
	d="
M118.583054,120.956093 
	C120.467957,119.741287 122.100578,118.345215 123.846909,118.184479 
	C127.788879,117.821655 131.787109,118.080223 135.762360,118.065910 
	C139.891769,118.051041 141.829529,120.168259 141.795776,124.218735 
	C141.697098,136.062027 143.696564,137.077438 128.752045,137.887451 
	C118.980553,138.417084 118.048050,137.105225 118.081329,127.264977 
	C118.088013,125.288200 118.277298,123.312042 118.583054,120.956093 
z"/>
<path fill="#DDDDDD" opacity="1.000000" stroke="none" 
	d="
M107.557617,135.492752 
	C101.465355,136.515198 95.665154,137.270630 89.849541,137.878616 
	C89.237526,137.942612 88.457512,137.225616 87.887016,136.721924 
	C84.947914,134.127014 83.960297,122.934639 86.370819,119.958084 
	C86.474663,119.829865 86.600044,119.617317 86.717102,119.616142 
	C93.592117,119.547478 100.468170,119.443840 107.340683,119.555222 
	C107.839172,119.563301 108.753426,121.163155 108.723167,121.995636 
	C108.563194,126.396355 108.162483,130.788315 107.557617,135.492752 
z"/>
<path fill="#FC5252" opacity="1.000000" stroke="none" 
	d="
M164.562393,109.876205 
	C161.952881,109.928421 159.788467,109.940361 157.624039,109.942436 
	C153.360352,109.946518 151.270126,107.653915 151.007614,103.552765 
	C150.154861,90.230789 150.360855,90.018593 163.414536,90.018814 
	C165.079529,90.018845 166.745697,89.982491 168.409073,90.034744 
	C169.397568,90.065796 170.559952,89.934715 171.339066,90.394028 
	C176.789566,93.607307 174.441391,98.985336 174.579102,103.515144 
	C174.681473,106.882347 172.611877,109.007103 168.843002,108.994659 
	C167.565414,108.990440 166.286041,109.536751 164.562393,109.876205 
z"/>
<path fill="#DCDCDC" opacity="1.000000" stroke="none" 
	d="
M120.089218,107.965073 
	C119.363487,102.757797 118.701653,97.798958 118.807068,92.856483 
	C118.827904,91.879776 121.740173,90.306290 123.423531,90.152573 
	C127.695938,89.762459 132.027664,90.011757 136.335526,90.031113 
	C136.990234,90.034050 137.718246,90.016052 138.287247,90.278748 
	C143.931290,92.884422 141.652161,98.051910 141.575882,102.130844 
	C141.533768,104.383308 139.613129,108.054169 137.844482,108.536224 
	C133.338989,109.764236 128.446899,109.675995 123.700081,109.838417 
	C122.627151,109.875122 121.515778,108.788681 120.089218,107.965073 
z"/>
<path fill="#DCDCDC" opacity="1.000000" stroke="none" 
	d="
M101.950287,108.952118 
	C97.762978,109.283501 94.017357,109.723625 90.262199,109.831627 
	C89.377075,109.857079 88.322739,108.900551 87.582130,108.159889 
	C85.023499,105.601128 84.118790,95.199310 86.101440,92.210464 
	C88.211838,89.029045 105.791611,88.951729 108.011070,92.114113 
	C111.812805,97.530991 108.188103,108.377815 101.950287,108.952118 
z"/>
<path fill="#DEDEDE" opacity="1.000000" stroke="none" 
	d="
M76.003571,130.672623 
	C75.923264,135.715805 73.748665,138.116989 68.986839,137.996231 
	C65.499359,137.907776 62.003483,138.076981 58.520584,137.922791 
	C57.345676,137.870789 55.964710,137.459686 55.083530,136.725739 
	C52.433998,134.518875 51.470455,122.366013 53.716309,119.856453 
	C54.434460,119.053993 55.652775,118.262062 56.664398,118.232864 
	C61.806755,118.084442 66.991432,117.862762 72.081078,118.411201 
	C73.517426,118.565987 75.324326,121.053101 75.814651,122.793533 
	C76.465965,125.105362 75.993553,127.733772 76.003571,130.672623 
z"/>
<path fill="#DDDDDD" opacity="1.000000" stroke="none" 
	d="
M141.788254,151.572937 
	C142.096527,167.111115 141.128418,164.929581 128.797363,165.008881 
	C127.134911,165.019577 125.469818,164.948364 123.810272,165.018127 
	C119.797577,165.186829 118.188911,163.196548 118.032257,159.297104 
	C117.514557,146.410233 117.708496,146.015167 130.563522,146.221588 
	C134.809784,146.289764 140.435165,144.099808 141.788254,151.572937 
z"/>
<path fill="#DDDDDD" opacity="1.000000" stroke="none" 
	d="
M102.649368,165.008972 
	C98.700806,165.010162 95.210945,165.027512 91.721428,165.000153 
	C90.562584,164.991074 89.141769,165.276703 88.289024,164.729279 
	C82.834076,161.227386 85.541588,155.657501 85.511406,151.025253 
	C85.500916,149.416000 88.593498,146.727951 90.588188,146.383820 
	C94.784149,145.659927 99.194527,146.058533 103.510956,146.190659 
	C107.071838,146.299652 108.980667,148.224152 108.936035,151.904175 
	C108.907829,154.230316 108.869926,156.559113 108.946037,158.883133 
	C109.079079,162.945602 107.448868,165.248093 102.649368,165.008972 
z"/>
<path fill="#DCDCDC" opacity="1.000000" stroke="none" 
	d="
M118.064697,185.812714 
	C118.065941,183.531937 118.046272,181.705139 118.072937,179.878998 
	C118.126244,176.228256 120.085205,174.360992 123.646172,174.281204 
	C127.795128,174.188217 131.949768,174.185013 136.098358,174.287689 
	C139.920151,174.382278 141.760895,176.443192 141.813385,180.304230 
	C142.007446,194.577072 141.628159,193.156937 129.643982,193.081039 
	C128.149628,193.071564 126.655113,193.087723 125.160759,193.078156 
	C119.036537,193.038940 118.377335,192.404053 118.064697,185.812714 
z"/>
<path fill="#DCDCDC" opacity="1.000000" stroke="none" 
	d="
M97.951492,174.250153 
	C100.242538,174.257843 102.166824,173.908234 103.865891,174.376266 
	C105.473076,174.818985 108.006569,176.000107 108.116516,177.064682 
	C108.583656,181.588028 108.481911,186.202667 108.131325,190.748749 
	C108.066055,191.595016 105.928719,192.876709 104.699738,192.934296 
	C99.565857,193.174820 94.413651,193.033997 89.268326,193.004227 
	C88.787193,193.001434 88.186539,192.943924 87.844894,192.663712 
	C83.062332,188.740829 85.420219,183.381668 85.597038,178.712936 
	C85.655754,177.162613 88.917656,175.241989 91.070396,174.410919 
	C92.949684,173.685425 95.328331,174.253448 97.951492,174.250153 
z"/>
<path fill="#DEDEDE" opacity="1.000000" stroke="none" 
	d="
M65.585953,109.874565 
	C62.973801,109.917091 60.740547,110.260170 58.671940,109.823410 
	C56.934624,109.456612 54.112499,108.344086 53.976677,107.280106 
	C53.341358,102.303284 52.687424,97.083473 53.588390,92.238403 
	C54.236164,88.754921 73.918175,88.730988 75.079483,92.258461 
	C76.224533,95.736542 75.922417,99.743546 75.960075,103.521439 
	C76.017036,109.234398 71.706993,108.854004 67.853706,109.073746 
	C67.235367,109.109009 66.641418,109.571983 65.585953,109.874565 
z"/>
<path fill="#DEDEDE" opacity="1.000000" stroke="none" 
	d="
M74.720581,191.754150 
	C68.198685,192.350693 61.982071,192.628784 55.765141,192.899765 
	C55.604816,192.906769 55.406639,192.883331 55.283939,192.794342 
	C50.335842,189.205643 52.879353,183.982452 52.532200,179.455673 
	C52.294456,176.355469 54.409611,174.479584 57.472397,174.360016 
	C62.106079,174.179077 66.779640,174.032791 71.377892,174.476532 
	C72.947052,174.627975 75.528435,176.531372 75.601639,177.756500 
	C75.872414,182.288284 75.288513,186.871140 74.720581,191.754150 
z"/>
<path fill="#DEDEDE" opacity="1.000000" stroke="none" 
	d="
M55.783035,164.811478 
	C52.405972,161.877777 51.178341,151.122330 53.536865,148.103836 
	C54.018711,147.487167 54.842487,146.743942 55.518303,146.734268 
	C61.431549,146.649628 67.352371,146.600296 73.255989,146.868988 
	C74.141296,146.909302 75.005058,148.610550 75.761856,149.630234 
	C76.019768,149.977753 75.971970,150.591644 75.973610,151.084137 
	C76.022522,165.806442 77.389870,165.208038 63.664436,165.005737 
	C61.177963,164.969086 58.691319,164.943954 55.783035,164.811478 
z"/>
<path fill="#BCBCBC" opacity="1.000000" stroke="none" 
	d="
M174.227783,124.272125 
	C174.228241,136.984894 174.228241,136.984894 162.573746,136.984909 
	C150.959213,136.984924 148.312668,133.757339 151.261276,122.205872 
	C151.698563,120.492760 154.583145,118.581772 156.575562,118.263016 
	C160.470901,117.639816 164.536789,118.131866 168.530151,118.058220 
	C172.503845,117.984947 174.406876,119.836731 174.227783,124.272125 
z"/>
<path fill="#BCBCBC" opacity="1.000000" stroke="none" 
	d="
M170.282227,146.316132 
	C174.353851,147.388702 174.221649,150.274094 174.245026,153.183426 
	C174.340134,165.016449 174.363297,165.016266 162.706863,165.016144 
	C150.838333,165.016022 148.436234,162.195709 151.287430,150.447739 
	C151.719727,148.666443 154.819946,146.652557 156.921906,146.341965 
	C161.145813,145.717834 165.532379,146.194504 170.282227,146.316132 
z"/>
<path fill="#BCBCBC" opacity="1.000000" stroke="none" 
	d="
M150.997772,184.009674 
	C151.008377,175.092285 151.897186,174.205734 160.379440,174.193665 
	C160.711075,174.193192 161.042816,174.199249 161.374329,174.192795 
	C176.059906,173.906799 174.285721,174.527802 174.007385,188.284302 
	C173.974670,189.901337 171.338684,192.593170 169.636185,192.831116 
	C165.083069,193.467438 160.374603,193.194901 155.740204,192.996170 
	C149.744232,192.739059 151.237152,188.065720 150.997772,184.009674 
z"/>
<path fill="#9BCB64" opacity="1.000000" stroke="none" 
	d="
M157.988403,33.931507 
	C161.983658,33.933750 165.481781,33.957607 168.979568,33.932255 
	C172.463058,33.907009 174.247635,35.572552 174.246902,39.084248 
	C174.245316,46.579838 174.221939,54.075500 174.247833,61.570995 
	C174.261459,65.516617 171.889069,66.780632 168.449829,66.801727 
	C162.120377,66.840561 155.790543,66.817604 149.460861,66.817726 
	C119.977852,66.818306 90.494835,66.821953 61.011826,66.815239 
	C53.470367,66.813522 52.754841,66.087555 52.743000,58.536137 
	C52.733597,52.539608 52.703701,46.542747 52.752300,40.546597 
	C52.798496,34.846653 53.706993,33.945232 59.547573,33.941666 
	C92.195412,33.921722 124.843277,33.931763 157.988403,33.931507 
M156.463440,48.156033 
	C156.317810,48.434216 156.172180,48.712402 155.901276,49.861446 
	C155.943069,51.910725 155.984863,53.960007 156.091827,56.520649 
	C156.386734,56.658165 156.681625,56.795681 157.850586,57.059185 
	C159.907547,57.017090 161.964493,56.974995 164.504181,56.884789 
	C164.819168,56.687347 164.939240,56.406544 164.988785,55.163525 
	C164.947296,53.095806 164.905807,51.028084 164.834381,48.489014 
	C164.663193,48.161377 164.396881,48.036388 163.158157,47.988144 
	C161.093582,48.029968 159.029022,48.071789 156.463440,48.156033 
M138.851639,57.059036 
	C140.908585,57.017082 142.965546,56.975128 145.534866,56.876888 
	C145.681030,56.587814 145.827194,56.298740 146.098633,55.138805 
	C146.056900,53.089527 146.015167,51.040245 145.911774,48.492016 
	C145.620255,48.365860 145.328735,48.239700 144.159851,47.987900 
	C142.095261,48.029774 140.030685,48.071644 137.493286,48.147152 
	C137.165359,48.325047 137.047562,48.594742 137.022507,49.836372 
	C137.061752,51.905220 137.101013,53.974068 137.161438,56.529095 
	C137.331863,56.869080 137.603928,57.003670 138.851639,57.059036 
z"/>
<path fill="#33691E" opacity="1.000000" stroke="none" 
	d="
M145.022491,56.933178 
	C142.965546,56.975128 140.908585,57.017082 138.327240,56.803589 
	C137.638916,56.305073 137.418060,56.136662 137.140259,56.042915 
	C137.101013,53.974068 137.061752,51.905220 137.263580,49.304996 
	C137.732285,48.605209 137.886108,48.385174 137.966095,48.113514 
	C140.030685,48.071644 142.095261,48.029774 144.700958,48.247421 
	C145.434021,48.746593 145.677811,48.907932 145.973450,48.990967 
	C146.015167,51.040245 146.056900,53.089527 145.828384,55.671883 
	C145.296097,56.386276 145.117538,56.629017 145.022491,56.933178 
z"/>
<path fill="#33691E" opacity="1.000000" stroke="none" 
	d="
M164.864319,48.960365 
	C164.905807,51.028084 164.947296,53.095806 164.738068,55.700047 
	C164.256241,56.417942 164.100937,56.650051 164.021454,56.932899 
	C161.964493,56.974995 159.907547,57.017090 157.311279,56.791122 
	C156.579880,56.270088 156.331436,56.098827 156.026672,56.009285 
	C155.984863,53.960007 155.943069,51.910725 156.166428,49.334518 
	C156.689896,48.638233 156.867508,48.406902 156.964447,48.113609 
	C159.029022,48.071789 161.093582,48.029968 163.684235,48.236435 
	C164.374573,48.717159 164.592575,48.875706 164.864319,48.960365 
z"/>
<path fill="#286116" opacity="1.000000" stroke="none" 
	d="
M137.729691,48.130333 
	C137.886108,48.385174 137.732285,48.605209 137.322296,48.864929 
	C137.047562,48.594742 137.165359,48.325047 137.729691,48.130333 
z"/>
<path fill="#286116" opacity="1.000000" stroke="none" 
	d="
M145.942612,48.741493 
	C145.677811,48.907932 145.434021,48.746593 145.139648,48.310242 
	C145.328735,48.239700 145.620255,48.365860 145.942612,48.741493 
z"/>
<path fill="#286116" opacity="1.000000" stroke="none" 
	d="
M156.713943,48.134819 
	C156.867508,48.406902 156.689896,48.638233 156.229065,48.899090 
	C156.172180,48.712402 156.317810,48.434216 156.713943,48.134819 
z"/>
<path fill="#286116" opacity="1.000000" stroke="none" 
	d="
M164.849350,48.724689 
	C164.592575,48.875706 164.374573,48.717159 164.122864,48.299385 
	C164.396881,48.036388 164.663193,48.161377 164.849350,48.724689 
z"/>
<path fill="#286116" opacity="1.000000" stroke="none" 
	d="
M137.150848,56.286003 
	C137.418060,56.136662 137.638916,56.305073 137.890228,56.740501 
	C137.603928,57.003670 137.331863,56.869080 137.150848,56.286003 
z"/>
<path fill="#286116" opacity="1.000000" stroke="none" 
	d="
M145.278687,56.905033 
	C145.117538,56.629017 145.296097,56.386276 145.765747,56.107315 
	C145.827194,56.298740 145.681030,56.587814 145.278687,56.905033 
z"/>
<path fill="#286116" opacity="1.000000" stroke="none" 
	d="
M156.059250,56.264969 
	C156.331436,56.098827 156.579880,56.270088 156.874252,56.728134 
	C156.681625,56.795681 156.386734,56.658165 156.059250,56.264969 
z"/>
<path fill="#286116" opacity="1.000000" stroke="none" 
	d="
M164.262817,56.908844 
	C164.100937,56.650051 164.256241,56.417942 164.675873,56.139473 
	C164.939240,56.406544 164.819168,56.687347 164.262817,56.908844 
z"/>
</svg>