<svg version="1.1" id="Layer_1" xmlns="http://www.w3.org/2000/svg" xmlns:xlink="http://www.w3.org/1999/xlink" x="0px" y="0px"
	 width="100%" viewBox="0 0 225 225" enable-background="new 0 0 225 225" xml:space="preserve">
<path fill="#FFFFFE" opacity="1.000000" stroke="none" 
	d="
M132.000000,226.000000 
	C89.166672,226.000000 46.833225,225.960831 4.500250,226.083649 
	C1.516990,226.092300 0.913465,225.482300 0.917785,222.499893 
	C1.023049,149.833374 1.023048,77.166656 0.917792,4.500140 
	C0.913473,1.517828 1.517666,0.913462 4.500098,0.917783 
	C77.166611,1.023050 149.833344,1.023045 222.499847,0.917795 
	C225.482132,0.913476 226.086548,1.517622 226.082230,4.500084 
	C225.976959,77.166595 225.976959,149.833328 226.082199,222.499832 
	C226.086517,225.482071 225.484177,226.098831 222.499649,226.084961 
	C192.500290,225.945358 162.500015,226.000000 132.000000,226.000000 
z"/>
<path fill="#F3B422" opacity="1.000000" stroke="none" 
	d="
M134.239853,222.769623 
	C128.649857,223.100891 123.282990,223.147903 117.455139,223.105713 
	C116.837097,222.823120 116.680038,222.629730 116.336685,222.112244 
	C114.923576,211.994583 112.103561,202.985931 103.826248,196.641342 
	C103.294838,196.234009 103.079666,195.560699 102.990334,194.546753 
	C103.065277,194.184738 103.463104,193.993057 103.682831,193.971344 
	C106.838745,191.019409 105.486740,187.417664 105.349762,184.053726 
	C105.289948,182.584824 103.819885,182.490067 102.652580,182.406097 
	C90.403854,181.525040 78.711929,178.624390 67.817955,172.827484 
	C65.908707,171.811539 64.680763,172.481003 63.813129,174.289246 
	C63.309155,175.339615 62.810829,176.392899 62.301777,177.440430 
	C61.391815,179.312912 59.900131,180.274704 57.834751,179.641083 
	C55.503548,178.925903 54.942898,177.070404 55.326809,174.865356 
	C55.699749,172.723282 56.474422,170.692276 57.293507,168.689728 
	C59.498314,163.299255 61.658546,157.889191 64.362617,152.296204 
	C68.909767,150.717667 71.321381,154.090759 74.575577,156.274597 
	C75.949066,159.617416 78.717979,160.575485 81.366158,161.500809 
	C126.683960,177.335526 164.134842,145.968826 169.358719,107.943619 
	C171.920074,89.299210 165.620132,72.757278 153.243149,58.656048 
	C145.903351,50.293736 137.460999,43.364475 126.686844,39.750172 
	C124.234978,38.927670 121.870865,38.270241 119.279305,40.381031 
	C116.407036,40.953308 114.136787,40.381111 111.872749,38.511063 
	C110.898926,36.469490 111.682991,34.932686 112.269844,33.389999 
	C114.994431,26.227770 118.171310,19.251017 121.015800,12.137035 
	C121.888878,9.953508 122.822998,7.494148 126.020813,8.920932 
	C128.661469,10.099127 128.890472,12.174685 128.167633,14.765084 
	C126.082619,22.237171 126.153297,22.214844 133.375275,24.691912 
	C164.571991,35.392113 186.852081,66.213707 187.085342,99.215546 
	C187.280640,126.847527 176.523361,148.896210 155.023773,165.823669 
	C146.984390,172.153381 137.847794,176.533890 127.912300,179.269531 
	C120.933533,181.191055 120.973526,181.380020 121.342407,188.489731 
	C121.410797,189.807953 121.330154,191.168701 122.146088,192.748520 
	C127.259460,194.382584 132.318970,195.395767 137.188843,196.988647 
	C148.397766,200.654999 157.715729,206.835281 163.088348,218.149536 
	C163.120041,218.880173 163.273331,219.231949 163.722870,219.757217 
	C164.063217,220.373505 164.204407,220.773956 164.390244,221.491119 
	C159.222061,223.349884 153.888000,222.060104 148.222870,222.484955 
	C145.643326,222.708679 143.927811,221.986618 142.677795,220.131226 
	C137.445648,212.365341 130.450363,206.593445 122.035027,201.967346 
	C121.306335,201.313339 121.930084,201.933975 121.467812,201.453857 
	C121.124504,201.097321 121.116249,201.069397 121.606384,201.611389 
	C126.800659,205.770157 130.055389,211.104553 133.272766,216.439270 
	C134.357971,218.238632 135.331238,220.224274 134.239853,222.769623 
z"/>
<path fill="#78BFDB" opacity="1.000000" stroke="none" 
	d="
M111.650604,37.758484 
	C114.208168,38.706650 116.432350,39.394688 118.970261,40.331726 
	C119.689163,40.404373 120.113060,40.341419 120.874969,40.447754 
	C121.831673,40.774490 122.398865,41.131199 123.086609,41.884346 
	C123.265999,42.409138 123.259453,42.641781 123.141876,43.206406 
	C121.358086,46.470764 122.278954,48.607346 125.063980,50.175331 
	C125.788963,50.583504 126.539246,50.957569 127.194221,51.473186 
	C128.387909,52.412891 129.686768,53.446480 129.339920,55.136024 
	C128.894882,57.303883 126.925049,56.869995 125.298889,57.056568 
	C128.231186,59.477448 131.826935,61.533722 128.874435,66.280449 
	C127.982536,67.714355 128.812698,69.358376 130.170929,70.189903 
	C133.003250,71.923889 132.540024,74.131042 131.619125,76.674652 
	C129.776337,81.764549 127.149757,86.531288 128.133469,92.455475 
	C129.395615,100.056351 134.691284,104.276131 142.058701,102.468315 
	C144.399063,101.894043 146.580658,101.971191 148.917633,102.621925 
	C152.001862,103.480721 152.508057,105.165863 152.928940,108.318024 
	C154.290222,118.513542 150.805130,127.629524 147.889923,136.941620 
	C147.387634,138.546112 147.297348,140.211975 147.094208,142.222855 
	C146.068726,145.796722 143.615646,147.662109 140.591888,149.458588 
	C140.074615,149.737122 139.866669,149.845474 139.345047,150.115570 
	C138.820511,150.385391 138.609650,150.493469 138.080017,150.763428 
	C137.326599,151.143036 136.890152,151.357040 136.111389,151.738403 
	C135.531860,152.012604 135.292938,152.116043 134.678131,152.347183 
	C119.474556,158.826538 104.268333,158.861160 88.861732,155.123291 
	C86.289711,154.499268 83.668716,153.802292 81.760483,151.151520 
	C81.530128,150.462921 81.396515,149.968903 81.579948,149.831879 
	C87.603569,145.332687 91.492706,138.536453 97.829132,134.466827 
	C100.368668,132.835785 101.306526,130.676392 102.247711,128.163422 
	C105.818649,118.629059 105.866745,118.596703 95.992722,115.224197 
	C92.903198,114.168961 90.877998,111.902657 88.428703,109.961777 
	C81.714966,104.641647 75.214355,97.992584 65.075836,100.852135 
	C61.575020,101.839531 59.423916,100.122971 58.752541,96.392921 
	C58.105770,92.799568 57.069138,89.593376 53.480446,87.301094 
	C50.548920,85.428589 51.493038,81.896484 52.849346,79.115326 
	C54.304146,76.132195 58.462368,74.552109 61.383045,75.541107 
	C62.684551,75.981812 63.602959,76.917900 64.589119,77.969460 
	C66.484856,73.713875 70.265968,71.124435 73.422089,68.105415 
	C76.122162,65.522636 79.926674,64.167648 81.646957,60.397640 
	C82.281212,59.007675 83.967491,59.399940 85.274696,59.318699 
	C86.482864,59.243614 87.711548,59.025051 88.018921,57.642467 
	C88.375282,56.039497 87.199852,55.239853 86.012932,54.556179 
	C83.617599,53.176456 81.627678,54.020916 79.591835,55.531052 
	C78.098045,56.639111 76.357162,58.455647 74.463303,56.223179 
	C72.857895,54.330734 73.973045,50.048702 76.291916,48.771675 
	C78.777481,47.402843 81.438187,47.765202 84.100182,48.171066 
	C86.197594,48.490852 89.494110,49.274441 89.670464,46.809322 
	C89.896660,43.647568 86.298248,44.806278 84.222496,44.358734 
	C82.270683,43.937912 79.386902,46.323608 78.730759,42.195862 
	C86.403030,37.537926 94.765060,37.652256 103.446365,37.133385 
	C106.402039,36.489071 108.898132,36.252579 111.650604,37.758484 
z"/>
<path fill="#379B49" opacity="1.000000" stroke="none" 
	d="
M78.533829,41.873840 
	C78.994125,43.452480 79.799820,43.700428 81.261948,43.511150 
	C83.393967,43.235149 85.663445,42.859043 87.695206,43.318199 
	C89.496346,43.725239 92.793945,43.708008 92.177879,46.697998 
	C91.640175,49.307648 89.157249,50.581642 86.292198,50.098995 
	C84.990860,49.879776 83.752541,49.277977 82.450485,49.072899 
	C76.670891,48.162575 74.705200,50.114052 75.308449,56.139946 
	C77.341988,56.737797 78.280418,55.089317 79.313278,53.973831 
	C81.315910,51.810989 83.314087,51.336739 85.913712,52.991329 
	C87.999962,54.319160 90.921837,55.084106 90.024689,58.334198 
	C89.220718,61.246758 86.647102,60.981575 84.246422,60.627953 
	C83.646866,60.539639 82.567787,60.504551 82.457497,60.763607 
	C79.435173,67.862900 71.667938,69.986473 67.093727,75.462128 
	C65.574081,77.281258 66.967896,79.750237 64.920433,81.795334 
	C63.637737,78.344757 62.276337,75.049782 57.746204,76.572189 
	C53.960972,77.844261 52.742638,80.636879 52.829891,84.319557 
	C52.853085,85.298500 52.607773,86.809669 53.746681,86.857292 
	C59.956226,87.116951 59.139240,92.382942 59.679276,95.873634 
	C60.328880,100.072571 62.727478,100.931824 65.443573,99.511162 
	C71.103546,96.550720 76.508095,99.471077 79.768021,102.053574 
	C83.571289,105.066521 89.474258,105.550209 91.565414,111.629997 
	C92.558395,114.516922 98.248444,114.477654 101.797966,115.780289 
	C108.031456,118.067917 108.481560,119.210999 105.017067,124.948929 
	C104.087151,126.489067 103.578323,128.285477 102.895325,129.971985 
	C102.400673,131.193405 102.263985,133.161835 101.409554,133.541672 
	C93.516289,137.050598 90.679260,146.544800 82.181915,149.739151 
	C81.584152,152.561890 82.997925,154.329529 84.486557,156.106293 
	C85.817123,157.694397 85.947998,159.083176 83.180466,159.765442 
	C82.580139,159.718582 82.342163,159.666489 81.771057,159.459366 
	C77.052246,155.890839 74.047623,151.483490 71.992371,145.956879 
	C71.277710,137.047211 69.544922,129.182770 62.645763,122.951385 
	C58.806347,119.483589 57.905014,114.306053 59.538628,109.030861 
	C60.495129,105.942177 59.137745,103.885231 57.329853,101.111237 
	C53.730965,95.589157 47.489334,92.276703 45.186089,85.436691 
	C46.017326,79.557182 44.639439,73.900398 46.817856,68.155594 
	C53.930454,54.958103 64.570427,46.646515 78.533829,41.873840 
z"/>
<path fill="#FFC63B" opacity="1.000000" stroke="none" 
	d="
M102.668549,194.168304 
	C110.068871,199.798019 114.920708,206.703751 116.481636,215.752747 
	C116.792999,217.557755 116.939552,219.318436 116.966080,221.547638 
	C116.784081,222.239563 116.581467,222.476486 116.173965,222.843903 
	C99.641960,223.055435 83.283768,223.109863 66.462723,223.082520 
	C65.656311,222.676498 65.247246,222.489685 64.499313,222.220856 
	C67.888954,209.594009 77.286415,202.922211 88.432693,198.088409 
	C92.853050,196.171432 97.526909,195.001633 102.668549,194.168304 
z"/>
<path fill="#FEC63C" opacity="1.000000" stroke="none" 
	d="
M112.020828,37.649849 
	C109.524269,37.823235 107.064552,37.627850 104.245338,37.272354 
	C107.935478,26.914642 111.985016,16.717005 116.035202,6.519627 
	C116.157845,6.210843 116.199860,5.744701 116.426407,5.620971 
	C121.231125,2.996919 124.355171,7.764583 128.441010,8.428045 
	C130.427200,8.750563 131.628006,9.869145 130.616074,12.359810 
	C129.457062,15.212493 126.542709,18.470774 128.138474,21.005238 
	C129.400894,23.010277 133.420792,23.248888 136.189041,24.340729 
	C165.518814,35.908890 191.105240,66.037285 188.249741,108.785912 
	C186.146713,140.269638 161.821808,170.778214 129.176300,180.033630 
	C123.652405,181.599747 121.738235,183.907700 122.575310,189.198776 
	C122.728508,190.167130 122.530930,191.190979 122.390671,192.647675 
	C117.612587,190.407547 120.791077,186.025681 120.125023,182.482300 
	C119.640564,179.904984 122.039391,179.463593 124.055222,178.984146 
	C139.094864,175.406952 152.352417,168.376205 163.093399,157.284561 
	C180.329697,139.485550 188.100433,117.810547 185.756592,93.279297 
	C184.138474,76.343575 177.551239,61.116611 165.842651,48.094528 
	C155.520905,36.614853 143.316620,28.664806 128.641388,24.423983 
	C124.332085,23.178680 123.093994,21.436825 125.708199,17.509434 
	C126.514488,16.298120 126.749359,14.720533 127.361961,13.363049 
	C128.378830,11.109717 126.812309,10.425035 125.262619,9.665237 
	C123.209465,8.658600 123.178886,10.349925 122.695229,11.524941 
	C119.159622,20.114536 115.605766,28.696623 112.020828,37.649849 
z"/>
<path fill="#66AACC" opacity="1.000000" stroke="none" 
	d="
M46.734123,67.956863 
	C46.853798,73.563171 46.655834,79.343895 46.301071,85.497742 
	C45.403568,101.783813 48.170113,116.713783 58.032032,129.794357 
	C61.252621,134.066071 64.981506,137.788116 68.948799,141.306076 
	C70.316025,142.518448 71.823364,143.557037 72.746216,145.652893 
	C75.197479,150.610153 77.734459,155.034500 81.948532,158.649078 
	C79.106583,160.858826 76.940498,158.950790 74.422279,157.148315 
	C71.358818,155.214630 68.562447,153.588882 65.434921,151.846069 
	C62.533123,151.554428 60.715084,150.177307 59.236996,147.770966 
	C48.878326,137.500839 41.161343,126.045334 38.602592,111.741051 
	C35.839397,96.293861 38.012661,81.628448 46.734123,67.956863 
z"/>
<path fill="#FEC73D" opacity="1.000000" stroke="none" 
	d="
M59.014309,147.809296 
	C61.008003,148.683670 62.868816,149.938904 64.916702,151.461563 
	C63.777298,159.007584 59.474636,165.168121 57.420208,172.174408 
	C57.046627,173.448456 56.475571,174.674789 56.208015,175.967102 
	C55.882542,177.539215 56.733189,178.519943 58.246067,178.852341 
	C59.499962,179.127823 60.434139,178.829147 61.021255,177.455551 
	C62.111927,174.903778 62.536797,171.237045 65.183876,170.467590 
	C67.771873,169.715332 70.040535,172.780777 72.615929,173.863953 
	C82.316299,177.943771 92.294998,180.878113 102.885902,180.927582 
	C106.291351,180.943512 107.639252,182.268585 106.925789,185.327652 
	C106.252785,188.213272 109.247879,192.071991 104.323204,193.958130 
	C104.063438,192.975510 104.329735,192.005554 104.368431,191.026627 
	C104.664200,183.544647 104.643837,183.620850 97.034805,182.969696 
	C87.340614,182.140091 78.139435,179.381439 69.526924,174.943359 
	C66.237961,173.248535 64.705284,173.814590 63.985596,177.263870 
	C62.917301,182.383926 60.433697,183.075775 55.722816,180.851288 
	C47.361286,176.902969 47.213028,177.174713 50.693119,168.464661 
	C53.397362,161.696442 56.150188,154.947617 59.014309,147.809296 
z"/>
<path fill="#FFC538" opacity="1.000000" stroke="none" 
	d="
M134.472717,223.116119 
	C133.339584,216.098846 128.507309,211.435608 124.693863,206.220734 
	C123.553391,204.661133 121.602127,203.744171 121.028427,201.346619 
	C131.973816,204.536896 138.991165,212.731171 145.656189,221.845642 
	C146.131439,222.156357 146.309387,222.311508 146.245453,222.725311 
	C142.311951,223.048752 138.620331,223.113556 134.472717,223.116119 
z"/>
<path fill="#F1AD00" opacity="1.000000" stroke="none" 
	d="
M146.466858,223.056519 
	C146.003571,222.983948 145.978149,222.492615 145.965820,222.246918 
	C151.780823,221.968292 157.608124,221.935364 163.935181,221.855133 
	C164.824326,223.967957 163.115875,223.105606 162.321426,223.116928 
	C157.191986,223.190063 152.060791,223.139252 146.466858,223.056519 
z"/>
<path fill="#FFC328" opacity="1.000000" stroke="none" 
	d="
M64.231277,222.337067 
	C64.717491,222.192383 65.218529,222.363419 65.859718,222.767609 
	C65.415283,222.884750 64.830696,222.768768 64.231277,222.337067 
z"/>
<path fill="#F1AD00" opacity="1.000000" stroke="none" 
	d="
M163.901672,219.669037 
	C163.676117,219.674408 163.430191,219.375778 163.124054,218.781616 
	C163.336319,218.779083 163.608810,219.072052 163.901672,219.669037 
z"/>
<path fill="#FFC328" opacity="1.000000" stroke="none" 
	d="
M116.247932,223.051468 
	C116.095238,222.681473 116.274025,222.418961 116.746063,222.094757 
	C116.964447,222.149384 116.973282,222.322693 116.988136,222.756256 
	C116.828003,223.044983 116.661850,223.073456 116.247932,223.051468 
z"/>
<path fill="#FBFBF6" opacity="1.000000" stroke="none" 
	d="
M74.077087,157.224762 
	C76.534035,157.575668 78.912880,158.310974 81.672577,159.008621 
	C82.053436,158.970963 82.013870,158.998230 82.006996,158.975525 
	C100.646881,162.539047 118.509705,160.541199 135.736237,151.267181 
	C136.094498,151.075180 136.041565,151.018234 136.032166,151.055954 
	C136.413620,150.579712 137.025803,150.534241 137.820007,150.193542 
	C138.063141,150.027679 138.006424,150.000534 138.008011,150.031937 
	C138.244629,149.773132 138.508652,149.512619 139.058990,149.168182 
	C142.026382,147.802261 143.973282,145.639923 146.063629,143.171158 
	C147.794617,139.330673 150.598358,136.657593 152.763321,133.534058 
	C158.375519,125.437042 161.182495,116.343559 162.605225,106.354065 
	C162.651108,105.495193 162.669449,105.003029 162.673813,104.136765 
	C163.652145,75.797646 150.583954,56.422543 126.133606,44.009613 
	C125.247765,43.559895 124.311691,43.202393 123.322762,42.219219 
	C123.068443,41.938858 122.999817,41.966652 123.034393,41.960865 
	C122.603195,41.596478 122.048927,41.485683 121.257339,41.226570 
	C120.567726,40.984291 120.109741,40.906239 119.467880,40.704453 
	C119.661430,37.288719 121.075043,36.761860 124.362839,37.689743 
	C160.514526,47.892475 193.155487,101.662460 152.419098,145.937912 
	C132.359131,167.740616 105.140274,171.683151 79.746056,162.079895 
	C77.569702,161.256882 74.161819,161.311035 74.077087,157.224762 
z"/>
<path fill="#FFC538" opacity="1.000000" stroke="none" 
	d="
M120.997719,201.002228 
	C120.561264,200.881943 120.127052,200.759430 119.692841,200.636902 
	C120.012047,199.934479 120.385628,200.298904 120.878891,200.789429 
	C121.002686,200.996109 120.999954,201.000000 120.997719,201.002228 
z"/>
<path fill="#379B49" opacity="1.000000" stroke="none" 
	d="
M163.680664,105.646057 
	C162.519531,120.216278 156.909653,132.469696 146.485840,142.734879 
	C145.122864,136.206863 148.719437,130.570816 150.562790,124.663673 
	C151.819870,120.635330 152.038910,116.951210 151.495102,112.988914 
	C151.338150,111.845276 150.980942,110.662148 151.139664,109.558105 
	C151.368256,107.968132 152.762009,105.202957 151.635803,105.041405 
	C148.936813,104.654243 146.759857,101.597275 143.810379,103.227509 
	C137.213333,106.873825 132.252319,103.911278 129.068832,98.579559 
	C125.780418,93.072128 125.013603,86.650635 128.751831,80.791672 
	C130.232635,78.470802 129.318848,75.509850 131.476486,73.473213 
	C132.383499,72.617058 131.115173,72.337044 130.416382,71.924339 
	C126.966011,69.886536 125.132225,67.513153 128.869507,63.967644 
	C129.901642,62.988461 128.276520,60.334999 125.784309,58.913837 
	C124.138031,57.975056 121.765846,57.775234 122.144783,54.984673 
	C122.442696,54.901379 122.788429,54.680958 122.960388,54.775757 
	C124.712906,55.741863 127.424026,57.285206 128.256393,55.501865 
	C129.336746,53.187229 126.245605,52.271282 124.413162,51.313568 
	C120.064102,49.040569 119.470840,46.174374 122.857300,42.205292 
	C134.961273,45.040318 143.826233,52.559444 151.182571,61.904339 
	C160.653198,73.935043 164.975372,87.754684 163.974487,103.576584 
	C163.622604,104.430122 163.503357,104.860840 163.680664,105.646057 
z"/>
<path fill="#65A9CD" opacity="1.000000" stroke="none" 
	d="
M70.679535,84.442184 
	C72.327362,76.983307 78.058533,73.200195 83.127151,69.091415 
	C86.024628,66.742622 89.158409,67.841438 89.949326,71.637505 
	C91.256241,77.910141 92.402092,84.271965 92.845184,90.649750 
	C93.150070,95.038116 87.969604,97.588676 83.671181,95.183449 
	C79.775093,93.003357 75.921135,91.554726 71.440941,91.974236 
	C69.791245,92.128716 68.343903,91.395485 67.704811,89.979721 
	C66.452988,87.206604 69.741394,86.617378 70.679535,84.442184 
z"/>
<path fill="#66AACD" opacity="1.000000" stroke="none" 
	d="
M135.699890,151.050537 
	C127.605522,157.999146 117.486061,160.760818 106.927895,161.894852 
	C98.685326,162.780182 90.434875,162.080231 82.215416,159.273468 
	C83.604820,158.673920 86.602425,158.984985 83.175461,156.434219 
	C81.036888,154.842438 80.743912,152.840240 81.725952,150.255371 
	C87.508110,155.095413 94.624573,155.247070 101.384003,155.905609 
	C113.019661,157.039215 124.389626,155.374939 135.699890,151.050537 
z"/>
<path fill="#65A9CD" opacity="1.000000" stroke="none" 
	d="
M105.365112,60.114227 
	C103.970566,60.441639 103.022820,60.857052 102.049400,60.930046 
	C100.246819,61.065224 98.124359,61.425755 97.299789,59.229332 
	C96.461853,56.997330 97.017029,54.883064 99.143410,53.544693 
	C101.845955,51.843685 104.280159,50.442070 101.547913,46.582104 
	C100.233170,44.724716 101.392464,43.353561 104.079552,43.473934 
	C109.520233,43.717648 114.080437,44.480000 114.907166,51.364647 
	C115.145096,53.345974 117.632927,55.004818 118.904442,56.933338 
	C119.707199,58.150894 120.541588,59.589661 119.243294,61.044655 
	C118.145966,62.274448 116.872475,61.907272 115.586380,61.346046 
	C112.451500,59.978043 109.156540,59.771362 105.365112,60.114227 
z"/>
<path fill="#66AACE" opacity="1.000000" stroke="none" 
	d="
M114.279709,132.636551 
	C113.472733,136.750290 114.343216,140.316208 115.477341,143.761902 
	C116.271492,146.174698 115.807159,147.897202 113.989120,149.517303 
	C110.855621,152.309647 102.850838,153.006226 99.445343,150.661957 
	C98.374504,149.924820 97.015259,149.148483 97.440887,147.570358 
	C97.786209,146.289963 99.041809,146.018646 100.269432,146.021118 
	C105.432182,146.031540 107.260803,143.136093 107.021278,138.362228 
	C106.938255,136.707657 107.348755,134.954285 106.938705,133.403397 
	C105.424637,127.676926 110.924408,126.593048 113.418213,123.650711 
	C114.467133,122.413139 115.646675,124.187912 115.913803,125.585129 
	C116.375786,128.001495 115.555595,130.160004 114.279709,132.636551 
z"/>
<path fill="#66AACE" opacity="1.000000" stroke="none" 
	d="
M120.789963,95.065582 
	C119.246330,96.774857 118.605278,99.855339 115.748787,98.083847 
	C113.494843,96.686050 114.133308,94.588669 114.694321,92.320389 
	C116.002022,87.033112 118.717751,81.690651 114.415039,76.323303 
	C113.338516,74.980400 113.565475,72.735168 115.353638,71.422752 
	C117.056229,70.173134 118.801865,69.697334 120.877411,70.910561 
	C122.810570,72.040550 123.438553,73.561325 122.680763,75.486031 
	C120.223228,81.727928 121.282928,88.260338 120.789963,95.065582 
z"/>
<path fill="#66AACD" opacity="1.000000" stroke="none" 
	d="
M133.124512,111.217606 
	C135.661575,108.026718 139.057648,107.863899 142.281616,108.140198 
	C145.982117,108.457344 147.469604,112.865883 144.670441,115.658531 
	C141.295807,119.025352 138.271820,122.230400 138.579514,127.472931 
	C138.639801,128.500214 137.962296,130.500198 136.341156,130.244217 
	C134.717117,129.987793 134.975723,128.186172 135.027634,126.892227 
	C135.066757,125.917091 135.101654,124.796371 135.580673,124.009781 
	C137.526993,120.813873 137.330200,118.108704 134.280594,115.717445 
	C132.966492,114.687019 132.890671,113.150017 133.124512,111.217606 
z"/>
<path fill="#66AACD" opacity="1.000000" stroke="none" 
	d="
M137.750641,150.042130 
	C137.586914,150.373596 137.110672,150.719528 136.328613,151.079559 
	C136.494568,150.747986 136.966354,150.402283 137.750641,150.042130 
z"/>
<path fill="#379B49" opacity="1.000000" stroke="none" 
	d="
M121.167160,41.339119 
	C121.673203,41.139126 122.320694,41.215900 123.018578,41.623878 
	C122.482178,41.842014 121.895393,41.728951 121.167160,41.339119 
z"/>
<path fill="#66AACD" opacity="1.000000" stroke="none" 
	d="
M139.030487,149.126724 
	C139.055557,149.323090 138.799103,149.596054 138.276123,149.966171 
	C138.256042,149.776672 138.502487,149.489990 139.030487,149.126724 
z"/>
<path fill="#77BFDB" opacity="1.000000" stroke="none" 
	d="
M72.961899,145.553497 
	C57.906158,135.319916 48.334377,121.146011 45.458866,102.778717 
	C44.612301,97.371292 44.598495,91.896591 45.820770,86.164772 
	C46.758621,87.823753 47.569389,89.847015 49.584137,90.524544 
	C52.989182,91.669609 54.471718,94.307495 55.684925,97.288399 
	C56.119370,98.355858 56.209099,99.793663 57.418617,100.182999 
	C62.115841,101.695007 62.266582,104.865021 60.953659,108.837860 
	C58.486645,116.302887 62.219322,121.904129 67.227730,126.529114 
	C70.846321,129.870651 72.555107,133.360519 72.200569,138.216766 
	C72.034546,140.490860 72.688583,142.824814 72.961899,145.553497 
z"/>
<path fill="#2B973B" opacity="1.000000" stroke="none" 
	d="
M163.893402,105.642776 
	C163.178482,105.525909 162.924561,105.006851 163.670807,104.174759 
	C163.905060,104.464432 163.934647,104.894775 163.893402,105.642776 
z"/>
<path fill="#75BED6" opacity="1.000000" stroke="none" 
	d="
M145.754852,65.978607 
	C146.779907,66.341660 147.373062,66.693130 148.011368,66.823433 
	C149.848297,67.198410 152.223068,66.431320 152.886536,69.180305 
	C153.177124,70.384277 153.098282,71.463165 151.764450,72.119652 
	C149.548569,73.210281 146.895065,75.314232 144.928192,73.120293 
	C141.608490,69.417374 138.144821,70.407814 134.553711,71.807388 
	C133.536545,70.090073 134.772568,68.969803 134.850449,67.708611 
	C135.091034,63.811844 136.999054,63.081734 140.071762,65.138908 
	C141.781982,66.283905 143.544571,65.949806 145.754852,65.978607 
z"/>
</svg>