<svg version="1.1" id="Layer_1" xmlns="http://www.w3.org/2000/svg" xmlns:xlink="http://www.w3.org/1999/xlink" x="0px" y="0px"
	 width="100%" viewBox="0 0 2000 500" enable-background="new 0 0 2000 500" xml:space="preserve">
<path fill="#04C098" opacity="1.000000" stroke="none" 
	d="
M1299.000000,501.000000 
	C866.000000,501.000000 433.500000,501.000000 1.000000,501.000000 
	C1.000000,334.333344 1.000000,167.666672 1.000000,1.000000 
	C667.666687,1.000000 1334.333374,1.000000 2001.000000,1.000000 
	C2001.000000,167.666672 2001.000000,334.333344 2001.000000,501.000000 
	C1767.166626,501.000000 1533.333374,501.000000 1299.000000,501.000000 
M97.285347,253.777161 
	C83.900612,285.736481 79.268646,318.897217 85.437363,353.031952 
	C101.680977,442.916534 184.687119,505.821350 276.128052,491.998688 
	C322.220459,485.031189 360.119720,463.417694 388.290588,426.351532 
	C433.540771,366.812958 434.037140,284.928833 391.518921,226.272827 
	C383.293060,214.924850 378.152496,202.162781 375.031097,188.556427 
	C370.421722,168.463989 365.917755,148.347015 361.226379,128.273804 
	C356.622711,108.576065 362.434143,95.818459 379.868622,85.501762 
	C387.119354,81.211182 393.592743,75.567947 400.238098,70.310364 
	C403.413727,67.797928 404.604553,63.840073 402.760773,60.412056 
	C401.360870,57.809353 398.405579,55.669102 395.658813,54.277409 
	C393.244263,53.054035 390.144440,53.224865 387.371338,52.661343 
	C324.588318,39.903095 261.806458,27.138943 199.030945,14.343832 
	C191.113983,12.730170 183.913132,13.945011 177.214417,18.688662 
	C122.439384,57.477314 67.619881,96.203178 12.815471,134.950348 
	C9.325307,137.417923 7.170399,140.470810 7.879417,145.073746 
	C8.615474,149.852203 12.092177,151.826035 16.046877,152.797760 
	C42.537571,159.306885 69.090858,165.562637 95.555183,172.175339 
	C97.905281,172.762589 100.958099,174.915924 101.650040,177.013138 
	C104.876396,186.792114 107.432076,196.794891 110.143661,206.740540 
	C113.640221,219.565353 111.636169,231.422852 103.967873,242.378143 
	C101.592751,245.771332 99.759193,249.543594 97.285347,253.777161 
M1251.001221,253.369019 
	C1243.877808,257.295349 1236.794922,261.298279 1229.611816,265.112030 
	C1226.545166,266.740143 1223.269043,267.973541 1219.302490,269.735260 
	C1220.756836,264.942139 1222.167480,261.531219 1222.782959,257.982422 
	C1223.774414,252.266479 1220.666260,248.859207 1215.082275,250.321365 
	C1210.098022,251.626465 1204.865723,253.743561 1200.975220,256.982635 
	C1196.884888,260.387878 1193.903442,265.333588 1191.052490,269.983215 
	C1178.261108,290.844971 1165.763184,311.886505 1152.996338,332.763580 
	C1148.568848,340.003754 1142.852173,345.964661 1134.334106,348.503662 
	C1128.907104,350.121246 1127.195190,349.308105 1127.049805,343.583588 
	C1126.942505,339.355896 1127.659058,334.974579 1128.777466,330.871277 
	C1133.852417,312.252502 1142.649414,295.279755 1152.332397,278.711761 
	C1154.252197,275.427002 1156.079956,272.001770 1157.311768,268.421722 
	C1159.185059,262.977173 1156.851074,259.367035 1151.160522,259.136230 
	C1138.020630,258.603394 1124.853271,257.946747 1111.720215,258.272522 
	C1098.640137,258.597015 1086.305054,262.524872 1076.088379,270.919312 
	C1069.299072,276.497742 1063.249756,283.029297 1057.205811,289.451050 
	C1046.422363,300.908630 1036.136963,312.942047 1032.136597,328.573090 
	C1028.683350,342.066223 1021.238159,348.154541 1004.945557,351.012024 
	C999.067383,352.042969 994.572388,349.360474 991.661987,344.191711 
	C988.109680,337.882935 987.855408,331.344757 991.630310,325.188385 
	C994.394958,320.679626 997.912231,316.620880 1001.205627,312.449615 
	C1022.871887,285.007996 1045.445190,258.224762 1065.924927,229.925873 
	C1078.130615,213.060303 1087.853638,194.220932 1097.190186,175.518707 
	C1103.398438,163.082825 1093.282715,150.353363 1079.200806,150.918610 
	C1071.170410,151.240952 1065.135132,155.794083 1059.618286,160.931534 
	C1020.357666,197.491898 990.833130,240.320633 975.766724,292.314667 
	C970.756165,309.605927 966.334778,327.069214 967.006897,345.286804 
	C967.579224,360.800598 976.897095,371.694244 990.739563,372.836182 
	C1001.710632,373.741211 1012.479492,371.979675 1022.142517,366.574646 
	C1028.699829,362.906891 1034.096436,363.082489 1040.024536,367.690399 
	C1046.214966,372.502106 1053.619751,373.976868 1060.741455,370.476654 
	C1069.055542,366.390320 1076.961304,361.415466 1084.803955,356.447052 
	C1090.506836,352.834290 1095.819824,348.606049 1101.459595,344.541962 
	C1103.187744,350.266357 1104.516235,355.424500 1106.306763,360.416901 
	C1108.847168,367.499420 1114.107910,370.919830 1121.650635,370.844666 
	C1125.816040,370.803162 1129.982666,370.867828 1134.148193,370.827148 
	C1149.178345,370.680328 1161.194458,365.528778 1170.410645,352.689453 
	C1185.690674,331.402435 1203.635986,312.314331 1222.813354,294.437836 
	C1231.248779,286.574738 1234.228027,287.473358 1237.463013,298.621185 
	C1240.367065,308.628265 1246.697266,310.575745 1254.089844,303.168060 
	C1264.872192,292.363739 1272.021484,279.213745 1276.420288,264.677521 
	C1278.424683,258.053802 1274.946167,252.751801 1268.040649,252.164841 
	C1262.680786,251.709229 1257.194214,252.742905 1251.001221,253.369019 
M652.515503,317.172363 
	C656.901611,305.661743 664.110779,296.091888 673.808716,288.731873 
	C680.932678,283.325317 688.755859,278.784943 696.549255,274.354248 
	C698.522705,273.232300 702.342468,272.998749 703.904297,274.195892 
	C705.375854,275.323853 705.289001,278.870789 705.328979,281.362457 
	C705.362854,283.478821 704.380615,285.592712 704.231995,287.734375 
	C703.829529,293.533508 707.881287,296.866730 713.452698,295.494171 
	C725.877075,292.433258 735.152527,280.294830 734.873169,267.461945 
	C734.649719,257.199432 729.076050,251.423264 718.766663,250.986816 
	C665.188965,248.718735 630.296021,297.159241 626.112549,329.783081 
	C623.002563,354.035126 639.240112,368.880707 655.691895,371.786560 
	C673.563416,374.943176 690.495117,370.407776 706.576477,363.082947 
	C714.349487,359.542480 717.121155,358.184326 722.124084,366.097839 
	C727.291809,374.272064 732.396790,373.996857 738.760376,366.527985 
	C745.133789,359.047699 751.447815,351.515259 757.914062,344.115936 
	C769.207947,331.192444 780.595093,318.350433 791.950623,305.480835 
	C795.738831,301.187561 800.068054,298.426666 806.572144,300.346222 
	C805.746887,302.598907 805.083618,304.451569 804.391113,306.293243 
	C799.591980,319.055420 794.411316,331.689270 790.073425,344.606201 
	C783.949585,362.841614 801.591858,377.815674 818.669189,372.426086 
	C825.611511,370.235046 832.370483,367.300781 838.942444,364.141846 
	C846.095215,360.703705 849.166260,360.688995 855.253113,365.781281 
	C860.360474,370.054169 866.208496,372.769623 872.754761,371.022247 
	C880.715637,368.897308 888.881042,366.669342 896.129944,362.895477 
	C928.846985,345.862579 948.795593,317.720551 962.106995,284.334747 
	C967.830688,269.979279 964.367126,262.888519 950.090576,256.792603 
	C947.186035,255.552383 944.267334,254.286316 941.251221,253.376709 
	C928.631958,249.570892 916.133057,250.110825 905.453247,258.075928 
	C893.885315,266.703400 882.751404,276.076965 872.406616,286.131744 
	C863.040100,295.235535 855.851990,306.470612 852.318604,319.115143 
	C848.367676,333.253754 838.047546,341.200867 826.888184,348.586243 
	C825.103210,349.767548 820.882629,349.489136 819.274109,348.128601 
	C817.452087,346.587463 816.536987,343.036163 816.643005,340.416107 
	C816.750183,337.767090 818.461792,335.126312 819.690430,332.588287 
	C829.696167,311.918488 839.819275,291.305237 849.768127,270.608246 
	C854.959167,259.809143 849.129639,250.207138 837.122009,250.856766 
	C831.787170,251.145386 825.955017,253.374573 821.487183,256.402710 
	C809.649597,264.425751 798.456909,273.397339 786.932068,281.889008 
	C785.763428,282.750092 784.082153,282.915436 782.638794,283.403656 
	C784.203552,278.937836 786.236694,275.569092 788.251587,272.189514 
	C807.603638,239.730545 826.921387,207.251083 846.341003,174.832642 
	C848.813721,170.704773 852.121582,167.067429 854.491272,162.890121 
	C857.399658,157.763458 855.737732,153.570480 850.404724,151.065125 
	C844.556335,148.317673 839.176697,150.118011 835.387939,154.385025 
	C829.456848,161.064575 823.447327,167.995605 819.148438,175.750046 
	C795.184998,218.976044 771.536194,262.379791 748.158325,305.925995 
	C730.726501,338.396454 701.549377,349.524475 667.272644,350.703461 
	C653.313110,351.183594 646.730591,341.394012 649.603577,327.516510 
	C650.276184,324.267548 651.326599,321.096832 652.515503,317.172363 
M1657.577759,223.099335 
	C1669.978271,202.784058 1682.371338,182.464233 1694.784180,162.156464 
	C1698.186279,156.590454 1695.647705,151.160080 1689.046509,150.037292 
	C1684.033813,149.184708 1679.487549,150.841812 1676.244629,154.294693 
	C1671.158447,159.710068 1665.990112,165.314316 1662.218506,171.649460 
	C1650.043701,192.100250 1638.628662,213.001419 1626.668945,233.582611 
	C1603.059082,274.211945 1582.172974,316.212524 1562.952637,359.065033 
	C1561.390869,362.547241 1560.085083,366.052673 1563.665894,369.065186 
	C1567.221802,372.056702 1571.262573,372.729584 1575.140259,369.934326 
	C1577.658569,368.118927 1579.848022,365.760742 1581.899780,363.398163 
	C1597.075195,345.924408 1612.041992,328.267059 1627.391235,310.948303 
	C1631.838379,305.930725 1637.317139,301.827545 1643.156372,296.552399 
	C1643.572754,299.450897 1644.296387,301.167572 1643.943481,302.623291 
	C1642.590576,308.204315 1640.970459,313.725281 1639.305420,319.224915 
	C1636.191040,329.512878 1631.630127,339.578003 1630.128052,350.087036 
	C1628.047241,364.644714 1640.246216,375.731110 1654.775269,373.024109 
	C1663.138672,371.465912 1671.449829,368.242035 1679.033325,364.316742 
	C1685.171875,361.139435 1689.867065,360.986938 1695.595947,364.671539 
	C1704.277588,370.255310 1713.900635,373.095825 1724.394165,373.214111 
	C1736.041504,373.345428 1746.722168,369.976807 1757.065308,365.193604 
	C1762.686890,362.593903 1768.002075,361.341858 1773.470581,365.511902 
	C1774.712646,366.459076 1776.512085,366.800171 1778.114746,367.128662 
	C1786.212036,368.788269 1790.368408,363.083099 1794.401611,357.840302 
	C1811.302612,335.870605 1829.752930,315.322632 1849.647339,296.023590 
	C1858.852539,287.093781 1862.830200,286.358978 1866.427124,299.803864 
	C1868.799927,308.673035 1875.863647,310.332611 1882.117065,303.471802 
	C1887.470947,297.597992 1892.532471,291.233246 1896.482300,284.371277 
	C1899.989136,278.279144 1902.463013,271.372040 1904.162231,264.519531 
	C1905.986328,257.163391 1902.131592,252.875656 1894.622314,251.776108 
	C1885.135010,250.386917 1876.948730,253.764496 1869.072998,258.430695 
	C1862.978638,262.041443 1856.893555,265.667969 1849.981934,269.776245 
	C1850.435059,265.402679 1850.801392,262.070404 1851.121948,258.733765 
	C1851.761108,252.079590 1849.652588,249.878494 1843.002319,250.199081 
	C1834.729492,250.597870 1829.093994,255.058670 1824.913208,261.840332 
	C1815.913696,276.438477 1807.116089,291.168060 1797.806763,305.566406 
	C1785.058960,325.283081 1767.905884,339.954193 1745.732056,348.110138 
	C1738.938843,350.608856 1731.705933,352.220551 1724.532837,353.280182 
	C1718.799927,354.127136 1714.122803,350.300873 1712.446411,344.842773 
	C1710.845337,339.630219 1713.574951,336.146271 1717.552979,333.483978 
	C1722.388550,330.247620 1727.284058,327.068939 1732.355225,324.224579 
	C1738.584106,320.730835 1745.036499,317.637054 1751.363892,314.316376 
	C1756.441284,311.651703 1758.197266,308.047699 1756.818115,303.367950 
	C1755.347534,298.378418 1752.222656,296.338837 1746.494385,297.050018 
	C1742.872437,297.499634 1739.327637,298.613007 1735.702881,298.979401 
	C1733.975220,299.154083 1732.141724,298.281433 1730.079102,297.821381 
	C1737.718506,285.662811 1747.146973,279.516418 1760.817993,282.134644 
	C1762.289307,282.416443 1763.779053,282.620819 1765.268555,282.785858 
	C1777.868042,284.181885 1787.862183,277.054535 1790.669556,264.662354 
	C1791.752441,259.882416 1790.475464,255.653870 1785.978516,253.695877 
	C1781.648926,251.810760 1776.806030,249.968460 1772.209961,250.019806 
	C1746.400024,250.308212 1728.022461,263.868042 1714.283325,284.466797 
	C1708.543701,293.071960 1705.552856,302.782135 1707.856812,313.445068 
	C1708.469604,316.280884 1707.599731,318.318756 1704.884521,320.109009 
	C1698.529663,324.299103 1692.408447,328.862518 1686.360596,333.494293 
	C1680.157837,338.244598 1674.159790,343.261871 1668.062256,348.150177 
	C1665.336060,350.335785 1662.448853,351.001251 1659.354370,348.898254 
	C1656.166870,346.732025 1655.282715,343.668427 1656.399292,340.139771 
	C1657.198486,337.614136 1658.324341,335.175446 1659.475220,332.780029 
	C1669.564209,311.780579 1679.709229,290.808075 1689.799805,269.809448 
	C1694.900146,259.195343 1689.461914,250.768463 1677.631470,250.887680 
	C1669.976440,250.964828 1663.522461,254.332596 1657.313843,258.363800 
	C1649.781372,263.254578 1642.255981,268.156952 1634.683960,272.985901 
	C1633.588623,273.684509 1632.284180,274.222015 1631.012207,274.418793 
	C1630.147827,274.552521 1628.538452,274.155609 1628.383423,273.651367 
	C1628.104614,272.744507 1628.415039,271.431976 1628.926758,270.548187 
	C1630.554199,267.738220 1632.457886,265.089813 1634.129028,262.303558 
	C1641.836182,249.454041 1649.500610,236.578934 1657.577759,223.099335 
M1342.531494,342.211823 
	C1336.709839,342.467682 1330.822754,343.398376 1325.079712,342.842255 
	C1312.178589,341.593018 1299.161499,340.173035 1288.979614,330.634613 
	C1286.337402,328.159332 1283.595581,328.539154 1280.838013,330.538574 
	C1273.645142,335.753845 1271.444946,344.945282 1275.813477,352.784088 
	C1281.260986,362.559143 1289.628784,368.652740 1300.702515,370.084839 
	C1338.239868,374.939331 1374.096802,369.274933 1407.714233,351.565826 
	C1419.500610,345.356934 1430.971069,338.478119 1439.278931,327.565796 
	C1450.023438,313.452637 1448.438477,293.400757 1435.666504,281.192596 
	C1427.742798,273.618744 1417.973145,269.435638 1407.820679,266.066193 
	C1388.401855,259.621368 1368.860718,253.541748 1349.475342,246.999680 
	C1338.623291,243.337402 1336.784546,235.824493 1344.138550,227.032196 
	C1345.093994,225.889954 1346.203857,224.858414 1347.336792,223.885941 
	C1364.637329,209.036102 1384.747070,199.123611 1405.874634,191.196014 
	C1412.671509,188.645645 1419.901978,187.083344 1427.057617,185.714157 
	C1432.101318,184.749054 1436.372070,186.360153 1440.557007,190.221939 
	C1443.915894,193.321442 1449.467163,196.092804 1453.764648,195.725357 
	C1464.619385,194.797272 1475.567383,192.857941 1486.002563,189.735245 
	C1495.797485,186.804092 1499.447632,172.965225 1492.402954,166.452423 
	C1488.792725,163.114822 1483.145874,160.901428 1478.161987,160.294800 
	C1426.463379,154.002319 1379.148682,165.376816 1337.571533,197.305786 
	C1328.693481,204.123642 1320.221802,212.116257 1313.594482,221.071167 
	C1303.169678,235.157242 1306.039795,252.358536 1319.682495,263.374329 
	C1325.145264,267.785217 1331.612915,271.583679 1338.245483,273.793213 
	C1357.013184,280.045288 1376.138672,285.215027 1395.042725,291.071075 
	C1400.564209,292.781494 1405.970215,295.054779 1411.141235,297.644806 
	C1415.160156,299.657684 1416.534424,303.637238 1413.728149,307.315277 
	C1409.836060,312.416840 1405.824585,317.859222 1400.691162,321.502960 
	C1383.611450,333.626221 1363.701172,338.539215 1342.531494,342.211823 
M549.695312,332.281097 
	C527.775879,340.204254 505.279602,343.922058 482.000641,341.000885 
	C472.855804,339.853302 464.111023,337.461792 457.028900,330.777100 
	C455.620392,329.447662 452.114014,328.733826 450.458679,329.543274 
	C442.005951,333.676453 439.075409,342.965485 443.024414,351.589905 
	C449.205353,365.088989 461.169403,369.471008 474.592987,370.991333 
	C501.931641,374.087708 528.379272,369.379028 554.152710,360.609406 
	C569.172302,355.498901 583.801025,349.076996 595.504700,338.049805 
	C601.440369,332.457245 608.725403,325.989288 610.498474,318.721222 
	C615.711121,297.354431 612.175232,282.746918 588.944092,271.742462 
	C586.543945,270.605530 584.089966,269.537079 581.574280,268.696228 
	C564.856628,263.108612 548.063782,257.740845 531.407532,251.977463 
	C524.838562,249.704483 518.289246,247.086136 512.220032,243.738480 
	C506.154510,240.392853 505.569489,235.974640 509.914520,230.479691 
	C512.574158,227.116180 515.796814,224.122818 519.091064,221.348404 
	C541.504944,202.471695 567.487793,191.154480 596.038513,185.363770 
	C600.286682,184.502136 603.880920,185.317245 606.678406,188.988998 
	C610.737610,194.316818 616.312012,196.772079 622.896606,195.903580 
	C632.119019,194.687134 641.408325,193.530365 650.429016,191.353607 
	C660.152588,189.007217 664.399780,182.054886 662.806335,173.269577 
	C661.447388,165.777084 656.828003,161.697037 647.212280,160.233673 
	C628.967773,157.457092 610.654846,157.457382 592.465332,160.471985 
	C556.746521,166.391815 524.867126,181.258804 496.354950,203.311966 
	C491.048767,207.416138 486.277954,212.664810 482.522461,218.236206 
	C471.527344,234.547775 472.264038,260.948761 498.548218,271.457550 
	C501.788635,272.753113 505.016937,274.127258 508.351257,275.131714 
	C529.052429,281.367493 549.793396,287.471375 570.494873,293.706390 
	C575.606201,295.245880 581.345886,296.740295 582.738708,302.704163 
	C584.264282,309.236938 579.433044,313.432037 575.370667,317.637054 
	C575.026062,317.993774 574.637329,318.336395 574.208801,318.579498 
	C566.288391,323.073425 558.358704,327.551239 549.695312,332.281097 
M1445.970093,392.495941 
	C1450.200562,385.718964 1454.364014,378.898926 1458.677368,372.175110 
	C1464.875977,362.512482 1469.187256,361.699860 1477.873291,369.084137 
	C1482.192139,372.755859 1486.913208,374.268677 1492.176880,373.063232 
	C1496.659180,372.036774 1501.206177,370.568726 1505.232422,368.387848 
	C1540.443726,349.315369 1563.789429,320.353302 1576.105835,282.379486 
	C1577.230225,278.912659 1578.288574,275.352814 1578.748169,271.755737 
	C1580.001831,261.945465 1574.074463,254.708145 1564.241089,255.221161 
	C1558.266113,255.532867 1552.253662,257.610657 1546.532837,259.661438 
	C1539.819336,262.067963 1533.454102,265.429138 1526.834595,268.122589 
	C1524.180298,269.202667 1521.250977,269.607056 1517.606934,270.532227 
	C1518.336426,268.731049 1518.520264,267.911530 1518.954590,267.258759 
	C1527.407837,254.552948 1535.847656,241.837875 1544.385986,229.189285 
	C1548.234863,223.487549 1548.294434,219.182404 1544.261230,215.880981 
	C1539.351440,211.862091 1534.706543,212.422501 1530.077881,218.116241 
	C1526.199219,222.887466 1522.445801,227.816910 1519.171997,233.013336 
	C1504.797729,255.827606 1490.585693,278.744354 1476.374756,301.661072 
	C1451.549683,341.693634 1426.607788,381.655548 1402.135254,421.902802 
	C1398.260376,428.275482 1395.882446,435.817383 1394.123779,443.133911 
	C1392.784546,448.706085 1396.170532,452.715027 1401.122925,454.245911 
	C1406.435791,455.888214 1408.679932,452.148926 1410.917114,448.581177 
	C1422.500854,430.108337 1434.038696,411.606720 1445.970093,392.495941 
M1968.993896,282.912445 
	C1978.652954,283.147430 1987.407837,273.587036 1987.485107,262.719910 
	C1987.546509,254.090347 1983.472656,250.082077 1974.837036,250.597580 
	C1970.357788,250.864975 1965.857666,251.292343 1961.445801,252.086197 
	C1940.543457,255.847366 1923.036499,265.783020 1909.060059,281.742157 
	C1902.633179,289.080902 1899.795898,297.336304 1903.647705,307.102234 
	C1905.917358,312.856842 1904.217407,317.882660 1899.478394,321.850708 
	C1897.308228,323.667877 1895.013672,325.352509 1892.969238,327.300629 
	C1886.792114,333.186920 1882.966919,340.158630 1883.711914,348.997528 
	C1884.584473,359.352051 1892.505737,368.315277 1905.421265,370.765076 
	C1933.210815,376.036224 1958.188110,369.106079 1979.719849,350.702118 
	C1984.445679,346.662994 1987.743774,341.335938 1988.180176,334.772766 
	C1988.450073,330.714355 1987.633179,327.053009 1983.668457,325.001648 
	C1979.617188,322.905518 1977.249023,326.109283 1974.498657,328.123566 
	C1966.462891,334.008728 1958.651001,340.250763 1950.272217,345.602631 
	C1940.694092,351.720337 1929.860107,353.490234 1918.619385,351.937622 
	C1910.748901,350.850555 1907.674316,342.630096 1912.785889,336.570374 
	C1914.157593,334.944153 1915.877808,333.509949 1917.679199,332.368347 
	C1922.173584,329.520355 1926.824829,326.921265 1931.379639,324.167206 
	C1938.207153,320.039001 1945.061035,315.949585 1951.792358,311.668793 
	C1954.741943,309.793121 1955.880371,306.857300 1954.893555,303.404327 
	C1953.817871,299.640656 1951.076294,297.589203 1947.318726,297.113403 
	C1945.545166,296.888824 1943.673096,297.214752 1941.872192,297.475067 
	C1936.851929,298.200684 1931.845581,299.022400 1926.045044,299.929474 
	C1926.494019,298.238892 1926.455200,296.969147 1927.070312,296.308777 
	C1930.087769,293.070007 1933.129639,289.825256 1936.435547,286.889526 
	C1948.571655,276.112122 1953.965576,275.452728 1968.993896,282.912445 
z"/>
<path fill="#000202" opacity="1.000000" stroke="none" 
	d="
M97.481522,253.459732 
	C99.759193,249.543594 101.592751,245.771332 103.967873,242.378143 
	C111.636169,231.422852 113.640221,219.565353 110.143661,206.740540 
	C107.432076,196.794891 104.876396,186.792114 101.650040,177.013138 
	C100.958099,174.915924 97.905281,172.762589 95.555183,172.175339 
	C69.090858,165.562637 42.537571,159.306885 16.046877,152.797760 
	C12.092177,151.826035 8.615474,149.852203 7.879417,145.073746 
	C7.170399,140.470810 9.325307,137.417923 12.815471,134.950348 
	C67.619881,96.203178 122.439384,57.477314 177.214417,18.688662 
	C183.913132,13.945011 191.113983,12.730170 199.030945,14.343832 
	C261.806458,27.138943 324.588318,39.903095 387.371338,52.661343 
	C390.144440,53.224865 393.244263,53.054035 395.658813,54.277409 
	C398.405579,55.669102 401.360870,57.809353 402.760773,60.412056 
	C404.604553,63.840073 403.413727,67.797928 400.238098,70.310364 
	C393.592743,75.567947 387.119354,81.211182 379.868622,85.501762 
	C362.434143,95.818459 356.622711,108.576065 361.226379,128.273804 
	C365.917755,148.347015 370.421722,168.463989 375.031097,188.556427 
	C378.152496,202.162781 383.293060,214.924850 391.518921,226.272827 
	C434.037140,284.928833 433.540771,366.812958 388.290588,426.351532 
	C360.119720,463.417694 322.220459,485.031189 276.128052,491.998688 
	C184.687119,505.821350 101.680977,442.916534 85.437363,353.031952 
	C79.268646,318.897217 83.900612,285.736481 97.481522,253.459732 
M154.118622,101.651062 
	C185.227203,90.289078 217.189209,82.618637 250.270462,80.295914 
	C269.561554,78.941444 288.893219,79.007568 308.083008,82.013237 
	C316.522278,83.335068 321.271698,88.676498 322.037720,97.166344 
	C322.186218,98.812103 322.117432,100.667343 322.879578,102.011673 
	C323.569794,103.229111 325.223633,104.603943 326.510895,104.664246 
	C334.497345,105.038376 340.899200,97.288979 339.516632,89.469879 
	C338.561798,84.069687 337.707275,78.636780 337.171356,73.182785 
	C336.817474,69.581596 338.723114,67.073700 342.391266,66.391617 
	C345.917511,65.735924 348.185547,67.578003 349.290344,70.741943 
	C350.328857,73.716118 350.795868,76.907089 352.007141,79.796082 
	C352.573364,81.146629 354.666779,83.160027 355.445526,82.912712 
	C361.823578,80.887054 368.089264,78.344627 371.289886,71.814697 
	C373.267487,67.779922 371.846924,65.523636 367.375458,64.895126 
	C364.576263,64.501663 361.751312,64.230629 358.985413,63.670113 
	C307.301147,53.196247 255.605331,42.777672 203.961639,32.106953 
	C193.971741,30.042820 185.312943,31.878954 177.081635,37.736115 
	C130.550247,70.846474 83.945381,103.853554 37.372501,136.905624 
	C36.636330,137.428085 35.988514,138.075012 34.837013,139.059067 
	C53.787300,147.010986 73.306808,150.270142 92.682434,153.972733 
	C96.832588,154.765793 98.216316,152.799271 96.703133,148.528275 
	C92.204750,135.831436 98.112083,128.984558 106.886986,123.500626 
	C121.510155,114.361771 137.031311,107.273468 154.118622,101.651062 
M265.968201,154.475983 
	C279.560394,156.892029 293.156097,159.288681 306.743744,161.730118 
	C318.218994,163.791962 321.209595,160.627274 318.526825,149.178848 
	C318.451019,148.855301 318.308746,148.546722 318.240631,148.222107 
	C315.747223,136.342072 313.124481,124.487083 310.807922,112.572586 
	C308.517700,100.793320 304.850800,97.528267 292.652222,97.050919 
	C248.444183,95.320984 205.218079,100.833961 163.401321,115.479729 
	C149.615356,120.308083 136.203659,126.292168 122.876221,132.313095 
	C113.424919,136.582901 109.992294,143.056473 111.890984,151.775131 
	C115.146355,166.723602 118.634293,181.624817 122.273430,196.484909 
	C124.117096,204.013382 126.781784,204.911209 133.122131,200.599442 
	C143.990570,193.208359 154.411057,185.069397 165.710968,178.419144 
	C196.306396,160.413055 229.363998,151.743423 265.968201,154.475983 
M268.505646,446.969910 
	C288.283813,416.473541 300.791077,383.314240 305.291199,347.169220 
	C306.811432,334.958649 305.311646,333.149475 292.952026,333.179169 
	C267.296234,333.240784 241.640228,333.216187 215.984314,333.231628 
	C213.486465,333.233154 210.974548,333.103027 208.493439,333.316223 
	C200.987289,333.961395 198.467407,337.044495 199.557190,344.506531 
	C200.566772,351.419281 201.675644,358.328644 203.071304,365.172058 
	C210.268524,400.463043 224.596680,432.551208 246.546021,461.170502 
	C250.372055,466.159180 253.965286,466.539978 257.947418,461.766815 
	C261.664337,457.311646 264.733948,452.316437 268.505646,446.969910 
M227.499695,313.915039 
	C250.139755,313.989899 272.779816,314.111877 295.419861,314.115753 
	C304.176941,314.117249 306.566254,310.971283 305.605927,302.355774 
	C300.916748,260.287445 284.114014,223.069122 260.321198,188.634171 
	C255.118591,181.104538 250.995438,180.711044 245.566620,187.947525 
	C239.892776,195.510605 234.630447,203.449951 229.882599,211.627945 
	C213.474121,239.890930 203.601044,270.396790 199.631256,302.816010 
	C198.661240,310.737610 201.476746,313.957825 209.521423,314.092987 
	C215.178421,314.188049 220.840225,313.997040 227.499695,313.915039 
M151.657379,434.847260 
	C164.466080,446.470978 178.662903,455.977692 194.741211,462.444519 
	C201.973984,465.353668 209.398773,467.814941 216.834702,470.169037 
	C218.728683,470.768646 222.102524,470.983154 222.842438,469.960693 
	C224.032776,468.315613 224.030075,465.432007 223.706436,463.190826 
	C223.467010,461.532806 221.940353,460.048279 220.945297,458.513611 
	C207.561813,437.872711 196.427307,416.045288 190.117905,392.264526 
	C185.742661,375.773773 183.470535,358.725250 180.252853,341.927063 
	C179.055511,335.676178 176.780045,333.288666 170.637039,333.242065 
	C151.150803,333.094238 131.660843,333.067383 112.175903,333.296844 
	C104.466736,333.387634 102.334427,336.554810 103.502625,344.279083 
	C108.884727,379.866089 125.341881,409.583435 151.657379,434.847260 
M205.056702,217.610687 
	C212.399429,204.236984 219.742142,190.863266 227.106873,177.449448 
	C226.612732,177.310181 226.288681,177.124649 225.982697,177.150757 
	C225.157181,177.221207 224.335754,177.361938 223.518982,177.509491 
	C199.609009,181.829453 178.125748,191.701248 159.253906,206.832581 
	C128.600784,231.410019 108.362305,262.279724 103.746864,302.112671 
	C102.647247,311.602753 105.080627,314.158966 114.621315,314.149078 
	C132.107239,314.131012 149.593201,314.125702 167.079132,314.141663 
	C176.879745,314.150635 179.984024,311.569611 180.811462,301.728882 
	C183.284195,272.320160 191.973083,244.727570 205.056702,217.610687 
M386.313232,392.733643 
	C393.509735,378.370575 398.702667,363.325378 401.078369,347.421692 
	C402.758514,336.174347 398.988373,332.529480 387.624420,333.032043 
	C378.828186,333.421021 370.009979,333.328857 361.201172,333.412994 
	C354.216370,333.479736 347.197113,333.065552 340.253601,333.620819 
	C328.888611,334.529694 326.439728,336.803711 324.978668,348.010468 
	C321.668732,373.398590 315.813538,398.152527 304.699158,421.235046 
	C297.806061,435.550720 289.016479,448.949219 281.229675,462.844330 
	C280.367523,464.382812 279.832245,466.732269 280.398499,468.232727 
	C280.806641,469.314240 283.443878,470.385620 284.833282,470.122528 
	C291.016418,468.951538 297.427521,468.070984 303.180878,465.693298 
	C338.867279,450.945251 367.660339,428.122589 386.313232,392.733643 
M319.027588,267.468689 
	C321.030212,279.601593 323.198669,291.710297 324.975647,303.876160 
	C326.108765,311.633972 328.393524,313.972595 336.268707,313.995544 
	C354.416656,314.048431 372.564575,314.134125 390.712524,314.127441 
	C399.770813,314.124084 402.409729,311.059814 401.288849,302.177795 
	C393.788147,242.741592 345.929321,191.122879 286.101532,177.970062 
	C283.799835,177.464050 281.451752,177.168823 277.731689,176.539688 
	C279.673096,180.477371 280.686737,183.291245 282.305023,185.698730 
	C299.063080,210.629242 311.613312,237.442688 319.027588,267.468689 
M335.705627,162.740448 
	C337.530792,176.161911 347.597412,187.106812 359.476746,188.500793 
	C359.540009,188.022095 359.734314,187.517395 359.648102,187.066299 
	C355.413788,164.912216 351.223114,142.749313 346.836823,120.625221 
	C346.051544,116.664368 342.812988,116.068756 339.373505,117.002945 
	C332.925049,118.754395 327.941925,127.630943 329.439117,134.210281 
	C331.536163,143.425659 333.500122,152.671341 335.705627,162.740448 
z"/>
<path fill="#000201" opacity="1.000000" stroke="none" 
	d="
M1251.382568,253.241821 
	C1257.194214,252.742905 1262.680786,251.709229 1268.040649,252.164841 
	C1274.946167,252.751801 1278.424683,258.053802 1276.420288,264.677521 
	C1272.021484,279.213745 1264.872192,292.363739 1254.089844,303.168060 
	C1246.697266,310.575745 1240.367065,308.628265 1237.463013,298.621185 
	C1234.228027,287.473358 1231.248779,286.574738 1222.813354,294.437836 
	C1203.635986,312.314331 1185.690674,331.402435 1170.410645,352.689453 
	C1161.194458,365.528778 1149.178345,370.680328 1134.148193,370.827148 
	C1129.982666,370.867828 1125.816040,370.803162 1121.650635,370.844666 
	C1114.107910,370.919830 1108.847168,367.499420 1106.306763,360.416901 
	C1104.516235,355.424500 1103.187744,350.266357 1101.459595,344.541962 
	C1095.819824,348.606049 1090.506836,352.834290 1084.803955,356.447052 
	C1076.961304,361.415466 1069.055542,366.390320 1060.741455,370.476654 
	C1053.619751,373.976868 1046.214966,372.502106 1040.024536,367.690399 
	C1034.096436,363.082489 1028.699829,362.906891 1022.142517,366.574646 
	C1012.479492,371.979675 1001.710632,373.741211 990.739563,372.836182 
	C976.897095,371.694244 967.579224,360.800598 967.006897,345.286804 
	C966.334778,327.069214 970.756165,309.605927 975.766724,292.314667 
	C990.833130,240.320633 1020.357666,197.491898 1059.618286,160.931534 
	C1065.135132,155.794083 1071.170410,151.240952 1079.200806,150.918610 
	C1093.282715,150.353363 1103.398438,163.082825 1097.190186,175.518707 
	C1087.853638,194.220932 1078.130615,213.060303 1065.924927,229.925873 
	C1045.445190,258.224762 1022.871887,285.007996 1001.205627,312.449615 
	C997.912231,316.620880 994.394958,320.679626 991.630310,325.188385 
	C987.855408,331.344757 988.109680,337.882935 991.661987,344.191711 
	C994.572388,349.360474 999.067383,352.042969 1004.945557,351.012024 
	C1021.238159,348.154541 1028.683350,342.066223 1032.136597,328.573090 
	C1036.136963,312.942047 1046.422363,300.908630 1057.205811,289.451050 
	C1063.249756,283.029297 1069.299072,276.497742 1076.088379,270.919312 
	C1086.305054,262.524872 1098.640137,258.597015 1111.720215,258.272522 
	C1124.853271,257.946747 1138.020630,258.603394 1151.160522,259.136230 
	C1156.851074,259.367035 1159.185059,262.977173 1157.311768,268.421722 
	C1156.079956,272.001770 1154.252197,275.427002 1152.332397,278.711761 
	C1142.649414,295.279755 1133.852417,312.252502 1128.777466,330.871277 
	C1127.659058,334.974579 1126.942505,339.355896 1127.049805,343.583588 
	C1127.195190,349.308105 1128.907104,350.121246 1134.334106,348.503662 
	C1142.852173,345.964661 1148.568848,340.003754 1152.996338,332.763580 
	C1165.763184,311.886505 1178.261108,290.844971 1191.052490,269.983215 
	C1193.903442,265.333588 1196.884888,260.387878 1200.975220,256.982635 
	C1204.865723,253.743561 1210.098022,251.626465 1215.082275,250.321365 
	C1220.666260,248.859207 1223.774414,252.266479 1222.782959,257.982422 
	C1222.167480,261.531219 1220.756836,264.942139 1219.302490,269.735260 
	C1223.269043,267.973541 1226.545166,266.740143 1229.611816,265.112030 
	C1236.794922,261.298279 1243.877808,257.295349 1251.382568,253.241821 
M1069.257446,178.058151 
	C1066.945312,179.958786 1064.556274,181.773804 1062.333740,183.773911 
	C1047.068237,197.511887 1035.666260,214.291611 1024.914307,231.563599 
	C1019.732300,239.887909 1014.469177,248.176773 1009.694824,256.733917 
	C1006.979736,261.600311 1005.403931,267.012756 1006.699951,273.421967 
	C1007.884216,272.415588 1008.712158,271.908752 1009.284485,271.196533 
	C1021.055359,256.549103 1033.312744,242.255493 1044.398315,227.105011 
	C1055.311035,212.190918 1064.090820,195.905930 1070.732056,178.052902 
	C1070.653442,177.768417 1070.574829,177.483932 1070.496216,177.199448 
	C1070.306152,177.439438 1070.115967,177.679443 1069.257446,178.058151 
M1110.926270,298.420715 
	C1115.491089,291.274475 1120.056030,284.128235 1125.038818,276.327728 
	C1116.546143,275.446686 1110.277832,277.464478 1104.365967,280.741943 
	C1082.502930,292.862427 1066.763550,310.699432 1055.988037,333.062531 
	C1054.932739,335.252625 1054.219360,337.819672 1054.186523,340.223267 
	C1054.159790,342.162903 1054.935059,345.287201 1056.189697,345.786163 
	C1057.920532,346.474518 1060.923462,345.844452 1062.542358,344.645752 
	C1080.403809,331.419891 1097.249146,317.081421 1110.926270,298.420715 
z"/>
<path fill="#000201" opacity="1.000000" stroke="none" 
	d="
M652.359375,317.531250 
	C651.326599,321.096832 650.276184,324.267548 649.603577,327.516510 
	C646.730591,341.394012 653.313110,351.183594 667.272644,350.703461 
	C701.549377,349.524475 730.726501,338.396454 748.158325,305.925995 
	C771.536194,262.379791 795.184998,218.976044 819.148438,175.750046 
	C823.447327,167.995605 829.456848,161.064575 835.387939,154.385025 
	C839.176697,150.118011 844.556335,148.317673 850.404724,151.065125 
	C855.737732,153.570480 857.399658,157.763458 854.491272,162.890121 
	C852.121582,167.067429 848.813721,170.704773 846.341003,174.832642 
	C826.921387,207.251083 807.603638,239.730545 788.251587,272.189514 
	C786.236694,275.569092 784.203552,278.937836 782.638794,283.403656 
	C784.082153,282.915436 785.763428,282.750092 786.932068,281.889008 
	C798.456909,273.397339 809.649597,264.425751 821.487183,256.402710 
	C825.955017,253.374573 831.787170,251.145386 837.122009,250.856766 
	C849.129639,250.207138 854.959167,259.809143 849.768127,270.608246 
	C839.819275,291.305237 829.696167,311.918488 819.690430,332.588287 
	C818.461792,335.126312 816.750183,337.767090 816.643005,340.416107 
	C816.536987,343.036163 817.452087,346.587463 819.274109,348.128601 
	C820.882629,349.489136 825.103210,349.767548 826.888184,348.586243 
	C838.047546,341.200867 848.367676,333.253754 852.318604,319.115143 
	C855.851990,306.470612 863.040100,295.235535 872.406616,286.131744 
	C882.751404,276.076965 893.885315,266.703400 905.453247,258.075928 
	C916.133057,250.110825 928.631958,249.570892 941.251221,253.376709 
	C944.267334,254.286316 947.186035,255.552383 950.090576,256.792603 
	C964.367126,262.888519 967.830688,269.979279 962.106995,284.334747 
	C948.795593,317.720551 928.846985,345.862579 896.129944,362.895477 
	C888.881042,366.669342 880.715637,368.897308 872.754761,371.022247 
	C866.208496,372.769623 860.360474,370.054169 855.253113,365.781281 
	C849.166260,360.688995 846.095215,360.703705 838.942444,364.141846 
	C832.370483,367.300781 825.611511,370.235046 818.669189,372.426086 
	C801.591858,377.815674 783.949585,362.841614 790.073425,344.606201 
	C794.411316,331.689270 799.591980,319.055420 804.391113,306.293243 
	C805.083618,304.451569 805.746887,302.598907 806.572144,300.346222 
	C800.068054,298.426666 795.738831,301.187561 791.950623,305.480835 
	C780.595093,318.350433 769.207947,331.192444 757.914062,344.115936 
	C751.447815,351.515259 745.133789,359.047699 738.760376,366.527985 
	C732.396790,373.996857 727.291809,374.272064 722.124084,366.097839 
	C717.121155,358.184326 714.349487,359.542480 706.576477,363.082947 
	C690.495117,370.407776 673.563416,374.943176 655.691895,371.786560 
	C639.240112,368.880707 623.002563,354.035126 626.112549,329.783081 
	C630.296021,297.159241 665.188965,248.718735 718.766663,250.986816 
	C729.076050,251.423264 734.649719,257.199432 734.873169,267.461945 
	C735.152527,280.294830 725.877075,292.433258 713.452698,295.494171 
	C707.881287,296.866730 703.829529,293.533508 704.231995,287.734375 
	C704.380615,285.592712 705.362854,283.478821 705.328979,281.362457 
	C705.289001,278.870789 705.375854,275.323853 703.904297,274.195892 
	C702.342468,272.998749 698.522705,273.232300 696.549255,274.354248 
	C688.755859,278.784943 680.932678,283.325317 673.808716,288.731873 
	C664.110779,296.091888 656.901611,305.661743 652.359375,317.531250 
M871.290283,329.935303 
	C870.472839,332.967133 869.357605,335.956024 868.912842,339.041595 
	C868.349060,342.952728 869.808228,346.259064 873.319397,348.385406 
	C876.705322,350.435852 879.915649,349.781250 883.151794,347.806366 
	C906.149841,333.771606 922.098450,313.369904 934.879456,290.214600 
	C938.133057,284.320007 936.567566,278.507385 931.773621,274.440094 
	C927.887756,271.143219 923.973572,271.254181 917.994324,274.808167 
	C896.346619,287.675446 881.232605,306.103027 871.290283,329.935303 
z"/>
<path fill="#000201" opacity="1.000000" stroke="none" 
	d="
M1657.379150,223.406158 
	C1649.500610,236.578934 1641.836182,249.454041 1634.129028,262.303558 
	C1632.457886,265.089813 1630.554199,267.738220 1628.926758,270.548187 
	C1628.415039,271.431976 1628.104614,272.744507 1628.383423,273.651367 
	C1628.538452,274.155609 1630.147827,274.552521 1631.012207,274.418793 
	C1632.284180,274.222015 1633.588623,273.684509 1634.683960,272.985901 
	C1642.255981,268.156952 1649.781372,263.254578 1657.313843,258.363800 
	C1663.522461,254.332596 1669.976440,250.964828 1677.631470,250.887680 
	C1689.461914,250.768463 1694.900146,259.195343 1689.799805,269.809448 
	C1679.709229,290.808075 1669.564209,311.780579 1659.475220,332.780029 
	C1658.324341,335.175446 1657.198486,337.614136 1656.399292,340.139771 
	C1655.282715,343.668427 1656.166870,346.732025 1659.354370,348.898254 
	C1662.448853,351.001251 1665.336060,350.335785 1668.062256,348.150177 
	C1674.159790,343.261871 1680.157837,338.244598 1686.360596,333.494293 
	C1692.408447,328.862518 1698.529663,324.299103 1704.884521,320.109009 
	C1707.599731,318.318756 1708.469604,316.280884 1707.856812,313.445068 
	C1705.552856,302.782135 1708.543701,293.071960 1714.283325,284.466797 
	C1728.022461,263.868042 1746.400024,250.308212 1772.209961,250.019806 
	C1776.806030,249.968460 1781.648926,251.810760 1785.978516,253.695877 
	C1790.475464,255.653870 1791.752441,259.882416 1790.669556,264.662354 
	C1787.862183,277.054535 1777.868042,284.181885 1765.268555,282.785858 
	C1763.779053,282.620819 1762.289307,282.416443 1760.817993,282.134644 
	C1747.146973,279.516418 1737.718506,285.662811 1730.079102,297.821381 
	C1732.141724,298.281433 1733.975220,299.154083 1735.702881,298.979401 
	C1739.327637,298.613007 1742.872437,297.499634 1746.494385,297.050018 
	C1752.222656,296.338837 1755.347534,298.378418 1756.818115,303.367950 
	C1758.197266,308.047699 1756.441284,311.651703 1751.363892,314.316376 
	C1745.036499,317.637054 1738.584106,320.730835 1732.355225,324.224579 
	C1727.284058,327.068939 1722.388550,330.247620 1717.552979,333.483978 
	C1713.574951,336.146271 1710.845337,339.630219 1712.446411,344.842773 
	C1714.122803,350.300873 1718.799927,354.127136 1724.532837,353.280182 
	C1731.705933,352.220551 1738.938843,350.608856 1745.732056,348.110138 
	C1767.905884,339.954193 1785.058960,325.283081 1797.806763,305.566406 
	C1807.116089,291.168060 1815.913696,276.438477 1824.913208,261.840332 
	C1829.093994,255.058670 1834.729492,250.597870 1843.002319,250.199081 
	C1849.652588,249.878494 1851.761108,252.079590 1851.121948,258.733765 
	C1850.801392,262.070404 1850.435059,265.402679 1849.981934,269.776245 
	C1856.893555,265.667969 1862.978638,262.041443 1869.072998,258.430695 
	C1876.948730,253.764496 1885.135010,250.386917 1894.622314,251.776108 
	C1902.131592,252.875656 1905.986328,257.163391 1904.162231,264.519531 
	C1902.463013,271.372040 1899.989136,278.279144 1896.482300,284.371277 
	C1892.532471,291.233246 1887.470947,297.597992 1882.117065,303.471802 
	C1875.863647,310.332611 1868.799927,308.673035 1866.427124,299.803864 
	C1862.830200,286.358978 1858.852539,287.093781 1849.647339,296.023590 
	C1829.752930,315.322632 1811.302612,335.870605 1794.401611,357.840302 
	C1790.368408,363.083099 1786.212036,368.788269 1778.114746,367.128662 
	C1776.512085,366.800171 1774.712646,366.459076 1773.470581,365.511902 
	C1768.002075,361.341858 1762.686890,362.593903 1757.065308,365.193604 
	C1746.722168,369.976807 1736.041504,373.345428 1724.394165,373.214111 
	C1713.900635,373.095825 1704.277588,370.255310 1695.595947,364.671539 
	C1689.867065,360.986938 1685.171875,361.139435 1679.033325,364.316742 
	C1671.449829,368.242035 1663.138672,371.465912 1654.775269,373.024109 
	C1640.246216,375.731110 1628.047241,364.644714 1630.128052,350.087036 
	C1631.630127,339.578003 1636.191040,329.512878 1639.305420,319.224915 
	C1640.970459,313.725281 1642.590576,308.204315 1643.943481,302.623291 
	C1644.296387,301.167572 1643.572754,299.450897 1643.156372,296.552399 
	C1637.317139,301.827545 1631.838379,305.930725 1627.391235,310.948303 
	C1612.041992,328.267059 1597.075195,345.924408 1581.899780,363.398163 
	C1579.848022,365.760742 1577.658569,368.118927 1575.140259,369.934326 
	C1571.262573,372.729584 1567.221802,372.056702 1563.665894,369.065186 
	C1560.085083,366.052673 1561.390869,362.547241 1562.952637,359.065033 
	C1582.172974,316.212524 1603.059082,274.211945 1626.668945,233.582611 
	C1638.628662,213.001419 1650.043701,192.100250 1662.218506,171.649460 
	C1665.990112,165.314316 1671.158447,159.710068 1676.244629,154.294693 
	C1679.487549,150.841812 1684.033813,149.184708 1689.046509,150.037292 
	C1695.647705,151.160080 1698.186279,156.590454 1694.784180,162.156464 
	C1682.371338,182.464233 1669.978271,202.784058 1657.379150,223.406158 
z"/>
<path fill="#000201" opacity="1.000000" stroke="none" 
	d="
M1342.975586,342.170837 
	C1363.701172,338.539215 1383.611450,333.626221 1400.691162,321.502960 
	C1405.824585,317.859222 1409.836060,312.416840 1413.728149,307.315277 
	C1416.534424,303.637238 1415.160156,299.657684 1411.141235,297.644806 
	C1405.970215,295.054779 1400.564209,292.781494 1395.042725,291.071075 
	C1376.138672,285.215027 1357.013184,280.045288 1338.245483,273.793213 
	C1331.612915,271.583679 1325.145264,267.785217 1319.682495,263.374329 
	C1306.039795,252.358536 1303.169678,235.157242 1313.594482,221.071167 
	C1320.221802,212.116257 1328.693481,204.123642 1337.571533,197.305786 
	C1379.148682,165.376816 1426.463379,154.002319 1478.161987,160.294800 
	C1483.145874,160.901428 1488.792725,163.114822 1492.402954,166.452423 
	C1499.447632,172.965225 1495.797485,186.804092 1486.002563,189.735245 
	C1475.567383,192.857941 1464.619385,194.797272 1453.764648,195.725357 
	C1449.467163,196.092804 1443.915894,193.321442 1440.557007,190.221939 
	C1436.372070,186.360153 1432.101318,184.749054 1427.057617,185.714157 
	C1419.901978,187.083344 1412.671509,188.645645 1405.874634,191.196014 
	C1384.747070,199.123611 1364.637329,209.036102 1347.336792,223.885941 
	C1346.203857,224.858414 1345.093994,225.889954 1344.138550,227.032196 
	C1336.784546,235.824493 1338.623291,243.337402 1349.475342,246.999680 
	C1368.860718,253.541748 1388.401855,259.621368 1407.820679,266.066193 
	C1417.973145,269.435638 1427.742798,273.618744 1435.666504,281.192596 
	C1448.438477,293.400757 1450.023438,313.452637 1439.278931,327.565796 
	C1430.971069,338.478119 1419.500610,345.356934 1407.714233,351.565826 
	C1374.096802,369.274933 1338.239868,374.939331 1300.702515,370.084839 
	C1289.628784,368.652740 1281.260986,362.559143 1275.813477,352.784088 
	C1271.444946,344.945282 1273.645142,335.753845 1280.838013,330.538574 
	C1283.595581,328.539154 1286.337402,328.159332 1288.979614,330.634613 
	C1299.161499,340.173035 1312.178589,341.593018 1325.079712,342.842255 
	C1330.822754,343.398376 1336.709839,342.467682 1342.975586,342.170837 
z"/>
<path fill="#000201" opacity="1.000000" stroke="none" 
	d="
M550.063171,332.156799 
	C558.358704,327.551239 566.288391,323.073425 574.208801,318.579498 
	C574.637329,318.336395 575.026062,317.993774 575.370667,317.637054 
	C579.433044,313.432037 584.264282,309.236938 582.738708,302.704163 
	C581.345886,296.740295 575.606201,295.245880 570.494873,293.706390 
	C549.793396,287.471375 529.052429,281.367493 508.351257,275.131714 
	C505.016937,274.127258 501.788635,272.753113 498.548218,271.457550 
	C472.264038,260.948761 471.527344,234.547775 482.522461,218.236206 
	C486.277954,212.664810 491.048767,207.416138 496.354950,203.311966 
	C524.867126,181.258804 556.746521,166.391815 592.465332,160.471985 
	C610.654846,157.457382 628.967773,157.457092 647.212280,160.233673 
	C656.828003,161.697037 661.447388,165.777084 662.806335,173.269577 
	C664.399780,182.054886 660.152588,189.007217 650.429016,191.353607 
	C641.408325,193.530365 632.119019,194.687134 622.896606,195.903580 
	C616.312012,196.772079 610.737610,194.316818 606.678406,188.988998 
	C603.880920,185.317245 600.286682,184.502136 596.038513,185.363770 
	C567.487793,191.154480 541.504944,202.471695 519.091064,221.348404 
	C515.796814,224.122818 512.574158,227.116180 509.914520,230.479691 
	C505.569489,235.974640 506.154510,240.392853 512.220032,243.738480 
	C518.289246,247.086136 524.838562,249.704483 531.407532,251.977463 
	C548.063782,257.740845 564.856628,263.108612 581.574280,268.696228 
	C584.089966,269.537079 586.543945,270.605530 588.944092,271.742462 
	C612.175232,282.746918 615.711121,297.354431 610.498474,318.721222 
	C608.725403,325.989288 601.440369,332.457245 595.504700,338.049805 
	C583.801025,349.076996 569.172302,355.498901 554.152710,360.609406 
	C528.379272,369.379028 501.931641,374.087708 474.592987,370.991333 
	C461.169403,369.471008 449.205353,365.088989 443.024414,351.589905 
	C439.075409,342.965485 442.005951,333.676453 450.458679,329.543274 
	C452.114014,328.733826 455.620392,329.447662 457.028900,330.777100 
	C464.111023,337.461792 472.855804,339.853302 482.000641,341.000885 
	C505.279602,343.922058 527.775879,340.204254 550.063171,332.156799 
z"/>
<path fill="#000201" opacity="1.000000" stroke="none" 
	d="
M1445.781250,392.805542 
	C1434.038696,411.606720 1422.500854,430.108337 1410.917114,448.581177 
	C1408.679932,452.148926 1406.435791,455.888214 1401.122925,454.245911 
	C1396.170532,452.715027 1392.784546,448.706085 1394.123779,443.133911 
	C1395.882446,435.817383 1398.260376,428.275482 1402.135254,421.902802 
	C1426.607788,381.655548 1451.549683,341.693634 1476.374756,301.661072 
	C1490.585693,278.744354 1504.797729,255.827606 1519.171997,233.013336 
	C1522.445801,227.816910 1526.199219,222.887466 1530.077881,218.116241 
	C1534.706543,212.422501 1539.351440,211.862091 1544.261230,215.880981 
	C1548.294434,219.182404 1548.234863,223.487549 1544.385986,229.189285 
	C1535.847656,241.837875 1527.407837,254.552948 1518.954590,267.258759 
	C1518.520264,267.911530 1518.336426,268.731049 1517.606934,270.532227 
	C1521.250977,269.607056 1524.180298,269.202667 1526.834595,268.122589 
	C1533.454102,265.429138 1539.819336,262.067963 1546.532837,259.661438 
	C1552.253662,257.610657 1558.266113,255.532867 1564.241089,255.221161 
	C1574.074463,254.708145 1580.001831,261.945465 1578.748169,271.755737 
	C1578.288574,275.352814 1577.230225,278.912659 1576.105835,282.379486 
	C1563.789429,320.353302 1540.443726,349.315369 1505.232422,368.387848 
	C1501.206177,370.568726 1496.659180,372.036774 1492.176880,373.063232 
	C1486.913208,374.268677 1482.192139,372.755859 1477.873291,369.084137 
	C1469.187256,361.699860 1464.875977,362.512482 1458.677368,372.175110 
	C1454.364014,378.898926 1450.200562,385.718964 1445.781250,392.805542 
M1485.630615,334.157501 
	C1482.376343,337.297333 1478.521606,340.306702 1481.648071,345.577820 
	C1484.057251,349.639374 1488.645020,350.534027 1494.563110,348.185913 
	C1496.713135,347.332886 1498.776245,346.219482 1500.783691,345.059692 
	C1502.941650,343.812805 1505.004883,342.397644 1507.079834,341.011780 
	C1526.370605,328.127808 1541.796753,312.081909 1549.252563,289.499573 
	C1550.042969,287.105591 1551.455322,284.264740 1548.310303,283.033112 
	C1545.657349,281.994110 1542.486328,281.933746 1539.573730,282.068848 
	C1538.385742,282.123932 1537.205200,283.766357 1536.139160,284.807373 
	C1519.469849,301.088379 1502.819702,317.388977 1485.630615,334.157501 
z"/>
<path fill="#000202" opacity="1.000000" stroke="none" 
	d="
M1968.611572,282.790222 
	C1953.965576,275.452728 1948.571655,276.112122 1936.435547,286.889526 
	C1933.129639,289.825256 1930.087769,293.070007 1927.070312,296.308777 
	C1926.455200,296.969147 1926.494019,298.238892 1926.045044,299.929474 
	C1931.845581,299.022400 1936.851929,298.200684 1941.872192,297.475067 
	C1943.673096,297.214752 1945.545166,296.888824 1947.318726,297.113403 
	C1951.076294,297.589203 1953.817871,299.640656 1954.893555,303.404327 
	C1955.880371,306.857300 1954.741943,309.793121 1951.792358,311.668793 
	C1945.061035,315.949585 1938.207153,320.039001 1931.379639,324.167206 
	C1926.824829,326.921265 1922.173584,329.520355 1917.679199,332.368347 
	C1915.877808,333.509949 1914.157593,334.944153 1912.785889,336.570374 
	C1907.674316,342.630096 1910.748901,350.850555 1918.619385,351.937622 
	C1929.860107,353.490234 1940.694092,351.720337 1950.272217,345.602631 
	C1958.651001,340.250763 1966.462891,334.008728 1974.498657,328.123566 
	C1977.249023,326.109283 1979.617188,322.905518 1983.668457,325.001648 
	C1987.633179,327.053009 1988.450073,330.714355 1988.180176,334.772766 
	C1987.743774,341.335938 1984.445679,346.662994 1979.719849,350.702118 
	C1958.188110,369.106079 1933.210815,376.036224 1905.421265,370.765076 
	C1892.505737,368.315277 1884.584473,359.352051 1883.711914,348.997528 
	C1882.966919,340.158630 1886.792114,333.186920 1892.969238,327.300629 
	C1895.013672,325.352509 1897.308228,323.667877 1899.478394,321.850708 
	C1904.217407,317.882660 1905.917358,312.856842 1903.647705,307.102234 
	C1899.795898,297.336304 1902.633179,289.080902 1909.060059,281.742157 
	C1923.036499,265.783020 1940.543457,255.847366 1961.445801,252.086197 
	C1965.857666,251.292343 1970.357788,250.864975 1974.837036,250.597580 
	C1983.472656,250.082077 1987.546509,254.090347 1987.485107,262.719910 
	C1987.407837,273.587036 1978.652954,283.147430 1968.611572,282.790222 
z"/>
<path fill="#05BA94" opacity="1.000000" stroke="none" 
	d="
M153.749390,101.780258 
	C137.031311,107.273468 121.510155,114.361771 106.886986,123.500626 
	C98.112083,128.984558 92.204750,135.831436 96.703133,148.528275 
	C98.216316,152.799271 96.832588,154.765793 92.682434,153.972733 
	C73.306808,150.270142 53.787300,147.010986 34.837013,139.059067 
	C35.988514,138.075012 36.636330,137.428085 37.372501,136.905624 
	C83.945381,103.853554 130.550247,70.846474 177.081635,37.736115 
	C185.312943,31.878954 193.971741,30.042820 203.961639,32.106953 
	C255.605331,42.777672 307.301147,53.196247 358.985413,63.670113 
	C361.751312,64.230629 364.576263,64.501663 367.375458,64.895126 
	C371.846924,65.523636 373.267487,67.779922 371.289886,71.814697 
	C368.089264,78.344627 361.823578,80.887054 355.445526,82.912712 
	C354.666779,83.160027 352.573364,81.146629 352.007141,79.796082 
	C350.795868,76.907089 350.328857,73.716118 349.290344,70.741943 
	C348.185547,67.578003 345.917511,65.735924 342.391266,66.391617 
	C338.723114,67.073700 336.817474,69.581596 337.171356,73.182785 
	C337.707275,78.636780 338.561798,84.069687 339.516632,89.469879 
	C340.899200,97.288979 334.497345,105.038376 326.510895,104.664246 
	C325.223633,104.603943 323.569794,103.229111 322.879578,102.011673 
	C322.117432,100.667343 322.186218,98.812103 322.037720,97.166344 
	C321.271698,88.676498 316.522278,83.335068 308.083008,82.013237 
	C288.893219,79.007568 269.561554,78.941444 250.270462,80.295914 
	C217.189209,82.618637 185.227203,90.289078 153.749390,101.780258 
z"/>
<path fill="#05BD95" opacity="1.000000" stroke="none" 
	d="
M265.510681,154.417572 
	C229.363998,151.743423 196.306396,160.413055 165.710968,178.419144 
	C154.411057,185.069397 143.990570,193.208359 133.122131,200.599442 
	C126.781784,204.911209 124.117096,204.013382 122.273430,196.484909 
	C118.634293,181.624817 115.146355,166.723602 111.890984,151.775131 
	C109.992294,143.056473 113.424919,136.582901 122.876221,132.313095 
	C136.203659,126.292168 149.615356,120.308083 163.401321,115.479729 
	C205.218079,100.833961 248.444183,95.320984 292.652222,97.050919 
	C304.850800,97.528267 308.517700,100.793320 310.807922,112.572586 
	C313.124481,124.487083 315.747223,136.342072 318.240631,148.222107 
	C318.308746,148.546722 318.451019,148.855301 318.526825,149.178848 
	C321.209595,160.627274 318.218994,163.791962 306.743744,161.730118 
	C293.156097,159.288681 279.560394,156.892029 265.510681,154.417572 
z"/>
<path fill="#05BE96" opacity="1.000000" stroke="none" 
	d="
M268.297058,447.264435 
	C264.733948,452.316437 261.664337,457.311646 257.947418,461.766815 
	C253.965286,466.539978 250.372055,466.159180 246.546021,461.170502 
	C224.596680,432.551208 210.268524,400.463043 203.071304,365.172058 
	C201.675644,358.328644 200.566772,351.419281 199.557190,344.506531 
	C198.467407,337.044495 200.987289,333.961395 208.493439,333.316223 
	C210.974548,333.103027 213.486465,333.233154 215.984314,333.231628 
	C241.640228,333.216187 267.296234,333.240784 292.952026,333.179169 
	C305.311646,333.149475 306.811432,334.958649 305.291199,347.169220 
	C300.791077,383.314240 288.283813,416.473541 268.297058,447.264435 
z"/>
<path fill="#05BC95" opacity="1.000000" stroke="none" 
	d="
M226.999786,313.924408 
	C220.840225,313.997040 215.178421,314.188049 209.521423,314.092987 
	C201.476746,313.957825 198.661240,310.737610 199.631256,302.816010 
	C203.601044,270.396790 213.474121,239.890930 229.882599,211.627945 
	C234.630447,203.449951 239.892776,195.510605 245.566620,187.947525 
	C250.995438,180.711044 255.118591,181.104538 260.321198,188.634171 
	C284.114014,223.069122 300.916748,260.287445 305.605927,302.355774 
	C306.566254,310.971283 304.176941,314.117249 295.419861,314.115753 
	C272.779816,314.111877 250.139755,313.989899 226.999786,313.924408 
z"/>
<path fill="#05BC96" opacity="1.000000" stroke="none" 
	d="
M151.396240,434.609497 
	C125.341881,409.583435 108.884727,379.866089 103.502625,344.279083 
	C102.334427,336.554810 104.466736,333.387634 112.175903,333.296844 
	C131.660843,333.067383 151.150803,333.094238 170.637039,333.242065 
	C176.780045,333.288666 179.055511,335.676178 180.252853,341.927063 
	C183.470535,358.725250 185.742661,375.773773 190.117905,392.264526 
	C196.427307,416.045288 207.561813,437.872711 220.945297,458.513611 
	C221.940353,460.048279 223.467010,461.532806 223.706436,463.190826 
	C224.030075,465.432007 224.032776,468.315613 222.842438,469.960693 
	C222.102524,470.983154 218.728683,470.768646 216.834702,470.169037 
	C209.398773,467.814941 201.973984,465.353668 194.741211,462.444519 
	C178.662903,455.977692 164.466080,446.470978 151.396240,434.609497 
z"/>
<path fill="#05BC95" opacity="1.000000" stroke="none" 
	d="
M204.913513,217.955231 
	C191.973083,244.727570 183.284195,272.320160 180.811462,301.728882 
	C179.984024,311.569611 176.879745,314.150635 167.079132,314.141663 
	C149.593201,314.125702 132.107239,314.131012 114.621315,314.149078 
	C105.080627,314.158966 102.647247,311.602753 103.746864,302.112671 
	C108.362305,262.279724 128.600784,231.410019 159.253906,206.832581 
	C178.125748,191.701248 199.609009,181.829453 223.518982,177.509491 
	C224.335754,177.361938 225.157181,177.221207 225.982697,177.150757 
	C226.288681,177.124649 226.612732,177.310181 227.106873,177.449448 
	C219.742142,190.863266 212.399429,204.236984 204.913513,217.955231 
z"/>
<path fill="#05BD95" opacity="1.000000" stroke="none" 
	d="
M386.147278,393.066833 
	C367.660339,428.122589 338.867279,450.945251 303.180878,465.693298 
	C297.427521,468.070984 291.016418,468.951538 284.833282,470.122528 
	C283.443878,470.385620 280.806641,469.314240 280.398499,468.232727 
	C279.832245,466.732269 280.367523,464.382812 281.229675,462.844330 
	C289.016479,448.949219 297.806061,435.550720 304.699158,421.235046 
	C315.813538,398.152527 321.668732,373.398590 324.978668,348.010468 
	C326.439728,336.803711 328.888611,334.529694 340.253601,333.620819 
	C347.197113,333.065552 354.216370,333.479736 361.201172,333.412994 
	C370.009979,333.328857 378.828186,333.421021 387.624420,333.032043 
	C398.988373,332.529480 402.758514,336.174347 401.078369,347.421692 
	C398.702667,363.325378 393.509735,378.370575 386.147278,393.066833 
z"/>
<path fill="#05BC95" opacity="1.000000" stroke="none" 
	d="
M318.956482,267.059753 
	C311.613312,237.442688 299.063080,210.629242 282.305023,185.698730 
	C280.686737,183.291245 279.673096,180.477371 277.731689,176.539688 
	C281.451752,177.168823 283.799835,177.464050 286.101532,177.970062 
	C345.929321,191.122879 393.788147,242.741592 401.288849,302.177795 
	C402.409729,311.059814 399.770813,314.124084 390.712524,314.127441 
	C372.564575,314.134125 354.416656,314.048431 336.268707,313.995544 
	C328.393524,313.972595 326.108765,311.633972 324.975647,303.876160 
	C323.198669,291.710297 321.030212,279.601593 318.956482,267.059753 
z"/>
<path fill="#07B28E" opacity="1.000000" stroke="none" 
	d="
M335.613312,162.322250 
	C333.500122,152.671341 331.536163,143.425659 329.439117,134.210281 
	C327.941925,127.630943 332.925049,118.754395 339.373505,117.002945 
	C342.812988,116.068756 346.051544,116.664368 346.836823,120.625221 
	C351.223114,142.749313 355.413788,164.912216 359.648102,187.066299 
	C359.734314,187.517395 359.540009,188.022095 359.476746,188.500793 
	C347.597412,187.106812 337.530792,176.161911 335.613312,162.322250 
z"/>
<path fill="#04BD96" opacity="1.000000" stroke="none" 
	d="
M1110.709717,298.704529 
	C1097.249146,317.081421 1080.403809,331.419891 1062.542358,344.645752 
	C1060.923462,345.844452 1057.920532,346.474518 1056.189697,345.786163 
	C1054.935059,345.287201 1054.159790,342.162903 1054.186523,340.223267 
	C1054.219360,337.819672 1054.932739,335.252625 1055.988037,333.062531 
	C1066.763550,310.699432 1082.502930,292.862427 1104.365967,280.741943 
	C1110.277832,277.464478 1116.546143,275.446686 1125.038818,276.327728 
	C1120.056030,284.128235 1115.491089,291.274475 1110.709717,298.704529 
z"/>
<path fill="#04BB94" opacity="1.000000" stroke="none" 
	d="
M1070.393677,178.414612 
	C1064.090820,195.905930 1055.311035,212.190918 1044.398315,227.105011 
	C1033.312744,242.255493 1021.055359,256.549103 1009.284485,271.196533 
	C1008.712158,271.908752 1007.884216,272.415588 1006.699951,273.421967 
	C1005.403931,267.012756 1006.979736,261.600311 1009.694824,256.733917 
	C1014.469177,248.176773 1019.732300,239.887909 1024.914307,231.563599 
	C1035.666260,214.291611 1047.068237,197.511887 1062.333740,183.773911 
	C1064.556274,181.773804 1066.945312,179.958786 1069.708130,178.113037 
	C1070.158813,178.167938 1070.393677,178.414612 1070.393677,178.414612 
z"/>
<path fill="#04BB94" opacity="1.000000" stroke="none" 
	d="
M1070.042358,178.043701 
	C1070.115967,177.679443 1070.306152,177.439438 1070.496216,177.199448 
	C1070.574829,177.483932 1070.653442,177.768417 1070.562866,178.233765 
	C1070.393677,178.414612 1070.158813,178.167938 1070.042358,178.043701 
z"/>
<path fill="#04BE97" opacity="1.000000" stroke="none" 
	d="
M871.471436,329.589111 
	C881.232605,306.103027 896.346619,287.675446 917.994324,274.808167 
	C923.973572,271.254181 927.887756,271.143219 931.773621,274.440094 
	C936.567566,278.507385 938.133057,284.320007 934.879456,290.214600 
	C922.098450,313.369904 906.149841,333.771606 883.151794,347.806366 
	C879.915649,349.781250 876.705322,350.435852 873.319397,348.385406 
	C869.808228,346.259064 868.349060,342.952728 868.912842,339.041595 
	C869.357605,335.956024 870.472839,332.967133 871.471436,329.589111 
z"/>
<path fill="#04BD96" opacity="1.000000" stroke="none" 
	d="
M1485.897949,333.921295 
	C1502.819702,317.388977 1519.469849,301.088379 1536.139160,284.807373 
	C1537.205200,283.766357 1538.385742,282.123932 1539.573730,282.068848 
	C1542.486328,281.933746 1545.657349,281.994110 1548.310303,283.033112 
	C1551.455322,284.264740 1550.042969,287.105591 1549.252563,289.499573 
	C1541.796753,312.081909 1526.370605,328.127808 1507.079834,341.011780 
	C1505.004883,342.397644 1502.941650,343.812805 1500.783691,345.059692 
	C1498.776245,346.219482 1496.713135,347.332886 1494.563110,348.185913 
	C1488.645020,350.534027 1484.057251,349.639374 1481.648071,345.577820 
	C1478.521606,340.306702 1482.376343,337.297333 1485.897949,333.921295 
z"/>
</svg>