<?xml version="1.0" encoding="UTF-8" standalone="no"?>
<svg
   version="1.1"
   id="Layer_1"
   x="0px"
   y="0px"
   width="100%"
   viewBox="0 0 355 237"
   enable-background="new 0 0 355 237"
   xml:space="preserve"
   sodipodi:docname="ScholarSphere logo.svg"
   inkscape:version="1.3.2 (091e20e, 2023-11-25, custom)"
   inkscape:export-filename="ScholarSphere logo.png"
   inkscape:export-xdpi="96"
   inkscape:export-ydpi="96"
   xmlns:inkscape="http://www.inkscape.org/namespaces/inkscape"
   xmlns:sodipodi="http://sodipodi.sourceforge.net/DTD/sodipodi-0.dtd"
   xmlns="http://www.w3.org/2000/svg"
   xmlns:svg="http://www.w3.org/2000/svg"><defs
   id="defs32" /><sodipodi:namedview
   id="namedview32"
   pagecolor="#ffffff"
   bordercolor="#666666"
   borderopacity="1.0"
   inkscape:showpageshadow="2"
   inkscape:pageopacity="0.0"
   inkscape:pagecheckerboard="0"
   inkscape:deskcolor="#d1d1d1"
   inkscape:zoom="2.9409283"
   inkscape:cx="160.83357"
   inkscape:cy="110.84935"
   inkscape:window-width="1920"
   inkscape:window-height="974"
   inkscape:window-x="-11"
   inkscape:window-y="-11"
   inkscape:window-maximized="1"
   inkscape:current-layer="Layer_1" />
<path
   fill="#04C098"
   opacity="1.000000"
   stroke="none"
   d=" M226.000000,238.000000   C152.031036,238.000000 78.562042,237.975632 5.093235,238.081619   C1.874484,238.086258 0.886000,237.713135 0.892705,234.096298   C1.034459,157.628860 1.025862,81.161072 0.911045,4.693546   C0.906151,1.434378 1.815119,0.930085 4.803466,0.932150   C120.587830,1.012140 236.372253,1.010409 352.156647,0.939965   C355.050385,0.938205 356.101013,1.295626 356.095581,4.653659   C355.971466,81.287750 355.973694,157.922134 356.094055,234.556229   C356.098969,237.692703 355.274536,238.077377 352.446411,238.070480   C310.464478,237.968384 268.482208,238.000000 226.000000,238.000000  z"
   id="path1" />
<path
   fill="#272220"
   opacity="1.000000"
   stroke="none"
   d=" M126.478386,92.566063   C127.498924,87.355423 129.182510,82.726501 131.923309,78.785675   C136.938553,71.574593 132.325790,65.071609 131.050186,58.334751   C130.727051,56.628242 128.605713,56.826893 127.224106,56.471046   C119.814156,54.562546 112.378098,52.755550 104.954437,50.899994   C103.347198,50.498260 101.566750,50.254223 101.210793,48.170410   C100.855301,46.089317 102.495087,45.244041 103.823509,44.301983   C120.930496,32.170467 138.059906,20.070576 155.163544,7.934330   C157.169052,6.511283 159.053162,6.107606 161.638138,6.652641   C181.663956,10.875009 201.739258,14.862671 221.799026,18.924084   C223.710266,19.311045 226.130569,19.108965 226.656677,21.606745   C227.161407,24.003090 224.988495,25.012604 223.482544,26.256741   C222.328171,27.210419 221.213150,28.297115 219.895767,28.953785   C212.884781,32.448486 211.507980,37.688011 213.934494,44.922089   C215.668350,50.091129 216.391266,55.606319 217.468811,60.986378   C218.453369,65.902206 220.212845,70.257805 223.244644,74.481995   C235.963120,92.202606 235.955978,116.887932 223.745087,135.085175   C211.487640,153.351822 188.942734,162.467163 167.450836,157.846100   C146.207748,153.278534 129.729385,135.875244 125.817596,114.256844   C124.514908,107.057571 124.825615,100.028687 126.478386,92.566063  z"
   id="path2"
   style="fill:#000000;fill-opacity:1" />
<path
   fill="#272421"
   opacity="1.000000"
   stroke="none"
   d=" M180.905640,191.356873   C183.685928,189.940369 185.758179,187.780685 188.775757,187.649216   C192.058258,187.506210 193.690887,188.636032 192.117111,192.128876   C191.018631,194.566864 189.809937,196.962616 187.940643,198.898926   C186.395020,200.499985 184.492981,201.007889 183.882126,198.270416   C183.102356,194.775894 181.685928,196.190475 180.280060,197.519043   C175.794418,201.757996 171.698990,206.357025 168.003281,211.303528   C165.313019,214.904282 161.198273,214.310516 157.609436,214.380341   C154.614777,214.438644 154.066040,211.349167 153.425522,208.439819   C151.274643,209.974869 149.344452,211.442810 147.323212,212.772324   C144.717377,214.486359 141.948380,215.801224 139.082382,213.396103   C137.256454,211.863800 136.000259,213.427658 134.561310,213.936356   C126.728294,216.705429 122.118988,213.453644 123.297318,205.273132   C125.464989,190.224136 132.739243,177.710800 143.794632,167.394165   C145.915741,165.414795 148.701141,163.827698 151.421631,166.092331   C154.098587,168.320694 152.338287,170.993073 151.140503,173.337265   C146.174622,183.055969 139.215698,191.357239 132.271469,199.663849   C131.630966,200.430038 130.948410,201.161072 130.285080,201.908157   C128.672821,203.723938 127.380043,205.683578 128.576614,208.195572   C129.191193,209.485779 130.444733,210.210434 131.887543,209.945984   C134.444382,209.477386 136.877045,208.369781 137.545090,205.688232   C138.830185,200.529739 142.403366,197.193588 145.873993,193.540161   C151.202591,187.930908 157.838425,188.969864 164.292404,189.291931   C166.857346,189.419922 166.066650,191.534393 165.158539,193.074890   C163.041122,196.666779 161.050232,200.313751 159.802505,204.321243   C159.263626,206.052032 158.437042,207.748810 159.529694,209.665115   C162.504852,209.346710 164.104523,207.324890 165.499237,204.977219   C168.219803,200.397842 171.001007,195.854492 173.726562,191.278046   C174.777435,189.513504 175.988007,187.946259 178.101105,187.449326   C179.973862,187.008911 181.147369,187.414444 180.381638,190.033646   C180.117920,190.806961 180.189926,191.184311 180.905640,191.356873  z"
   id="path3"
   style="fill:#000000;fill-opacity:1" />
<path
   fill="#272421"
   opacity="1.000000"
   stroke="none"
   d=" M82.885132,194.304504   C85.644646,192.253113 88.104050,190.267441 90.727287,188.528992   C92.453674,187.384872 94.658806,186.838638 96.363953,188.227234   C98.426338,189.906784 96.841278,191.900467 96.022026,193.636505   C94.034149,197.848892 91.915108,201.999451 89.934769,206.215240   C89.464882,207.215576 88.775787,208.522049 89.997025,209.403702   C91.202133,210.273682 92.194984,209.158646 93.071648,208.497223   C94.780434,207.207932 96.393356,205.954102 97.123535,203.645630   C99.123886,197.321503 103.684029,192.976044 108.973831,189.280304   C112.934929,186.512848 116.886093,187.415131 120.704788,189.421234   C123.133659,190.697205 122.886932,193.143066 122.038727,195.166901   C118.664215,203.218582 113.677277,209.931137 105.412750,213.572784   C102.909920,214.675613 100.190796,215.268478 97.917427,213.100327   C96.167923,211.431824 94.970764,212.820496 93.490479,213.417084   C90.576241,214.591553 87.435692,216.263840 84.657043,213.493866   C82.044838,210.889801 83.594521,207.909637 84.671646,205.107742   C85.487740,202.984848 86.316002,200.866623 87.243309,198.477188   C84.911987,197.990936 84.149986,199.514557 83.272804,200.476822   C79.908295,204.167633 76.686035,207.987717 73.351517,211.706497   C71.735519,213.508713 70.372421,216.946579 67.626610,212.523590   C66.708817,211.045197 65.214691,212.620499 64.077965,213.028641   C56.011978,215.924667 51.051113,215.392670 48.000706,211.205719   C45.148933,207.291428 46.859482,200.218323 51.986931,194.435349   C55.702393,190.244888 60.271111,187.787231 65.889511,187.477127   C68.359177,187.340805 70.846535,187.735367 71.075218,190.811676   C71.310242,193.973251 69.526596,196.307800 66.644806,197.354507   C64.699020,198.061234 63.814037,196.716537 64.376060,194.837585   C65.132065,192.310089 63.771103,192.066269 62.138218,192.899200   C57.412392,195.309830 53.474125,198.650116 52.089970,204.024994   C51.068951,207.989761 52.931675,210.298508 57.087337,209.881332   C64.468842,209.140335 70.715584,206.722305 74.374893,199.205765   C79.104858,189.490021 84.660637,180.175735 89.886818,170.702927   C90.447136,169.687317 91.172981,168.761978 91.835098,167.803787   C93.255142,165.748749 95.420242,163.736511 97.551872,165.381897   C99.486359,166.875076 96.964516,168.913147 96.042892,170.486053   C91.668663,177.951492 87.155975,185.335800 82.594299,193.076202   C82.369316,193.787262 82.411636,194.146072 82.885132,194.304504  z"
   id="path4"
   style="fill:#000000;fill-opacity:1" />
<path
   fill="#272421"
   opacity="1.000000"
   stroke="none"
   d=" M321.876587,191.319656   C324.699554,190.019882 326.745026,187.841324 329.739929,187.618912   C332.840851,187.388626 334.234222,188.576767 333.246918,191.730667   C332.386902,194.478012 330.768494,196.834549 328.874664,198.935150   C327.317261,200.662567 325.555969,200.821716 324.867523,198.151031   C323.961273,194.635330 322.485321,196.435425 321.187866,197.659393   C316.824951,201.775208 312.829773,206.232925 309.195709,211.007431   C307.710358,212.958939 306.223694,214.769226 303.481934,212.875549   C302.526611,212.215744 301.605316,212.599289 300.675171,213.051086   C295.723724,215.456161 290.787903,215.879501 286.008820,212.662857   C284.273956,211.495193 283.279205,213.001068 281.971283,213.482925   C279.181458,214.510742 276.166351,216.171707 273.513580,213.798874   C270.637848,211.226624 272.188812,207.995651 273.076141,204.954773   C273.702698,202.807571 275.775085,201.082382 274.877106,197.799057   C269.926056,201.743210 266.377167,206.486954 262.506836,210.902756   C261.851501,211.650482 261.363373,212.544189 260.712585,213.296585   C259.772614,214.383301 258.552551,215.086761 257.219666,214.177368   C255.896103,213.274292 256.798523,211.992264 257.240845,211.036819   C259.824554,205.455811 262.303711,199.811264 265.207825,194.397186   C269.764526,185.902298 274.601807,177.556808 279.397766,169.192490   C280.123505,167.926758 281.141663,166.753616 282.252350,165.804108   C283.440857,164.788025 285.186401,164.323990 286.380371,165.421265   C287.688049,166.623032 286.151550,167.822296 285.531342,168.861526   C281.186218,176.142395 276.781372,183.387650 272.300537,190.981247   C272.735565,191.317749 271.903259,192.598114 273.205688,192.322601   C275.871307,191.078979 277.765228,188.845718 280.508881,187.886688   C282.179871,187.302597 283.873413,187.190659 285.197632,188.450684   C286.591309,189.776840 285.584198,191.234344 284.948151,192.564194   C282.797638,197.060730 280.606110,201.537689 278.462555,206.037491   C277.966095,207.079651 277.277740,208.367798 278.241302,209.290359   C279.580994,210.573013 280.629486,209.045700 281.660248,208.418533   C284.210297,206.866928 285.842712,204.112183 288.741364,202.983368   C289.748474,202.591156 289.405914,201.853424 289.315460,200.967819   C288.552673,193.498657 299.128540,185.210846 306.123291,187.652924   C307.984192,188.302612 308.434479,189.548370 307.808746,191.132172   C306.957550,193.286697 305.264557,194.904327 302.892120,194.663452   C297.658691,194.132095 297.673401,193.987152 294.351379,197.815857   C294.576752,198.010086 294.800293,198.369858 295.027710,198.372330   C296.878052,198.392441 299.430725,196.573013 300.343262,199.127594   C301.244629,201.651077 298.202454,201.871994 296.706848,202.890274   C295.611847,203.635788 294.328064,204.115204 293.274292,204.907303   C291.907288,205.934875 289.535797,206.719131 290.615601,208.993668   C291.565948,210.995605 293.862946,210.587540 295.550476,210.120316   C301.327728,208.520706 305.951294,205.110153 309.322723,200.185242   C311.664490,196.764420 313.607300,193.072601 315.886627,189.605911   C316.929382,188.019943 318.586365,187.038467 320.592224,187.415741   C321.965912,187.674103 321.672424,188.829819 321.407837,190.153564   C321.678711,190.648529 321.812164,190.848129 321.776459,191.085999   C321.737885,191.342712 321.677979,191.471115 321.876587,191.319656  z"
   id="path5"
   style="fill:#000000;fill-opacity:1" />
<path
   fill="#27221F"
   opacity="1.000000"
   stroke="none"
   d=" M220.958038,203.090622   C224.874100,199.366302 224.676910,198.189911 219.992462,196.695465   C215.400635,195.230545 210.625534,194.273117 206.146713,192.536346   C198.871811,189.715347 197.335770,183.356812 203.092438,178.109802   C212.788208,169.272400 224.507324,165.611969 237.630920,167.057449   C239.532867,167.266937 241.845230,167.893906 241.825928,170.507034   C241.808212,172.902557 239.956497,174.078812 237.859741,174.277802   C234.809799,174.567245 231.462631,176.724182 228.771042,173.271225   C228.527618,172.958923 227.898895,172.885056 227.432251,172.818375   C223.264343,172.222549 209.171906,179.301010 207.275711,182.888306   C205.916397,185.459885 207.933167,186.257263 209.572784,186.842865   C213.799820,188.352524 218.156250,189.499176 222.386734,191.000107   C226.430099,192.434647 230.310471,194.513565 230.724075,199.311020   C231.114853,203.843796 227.854294,206.620132 224.373108,208.755447   C216.436432,213.623688 207.740051,215.314484 198.514908,214.310150   C196.275681,214.066376 194.385803,213.034348 192.997101,211.222321   C191.609283,209.411453 191.505447,207.643250 193.100327,205.818405   C194.922089,203.733963 195.516922,205.923141 196.851624,206.527023   C203.566223,209.564911 210.209930,207.892242 216.708115,205.452789   C218.094238,204.932434 219.331970,204.016708 220.958038,203.090622  z"
   id="path6"
   style="fill:#000000;fill-opacity:1" />
<path
   fill="#272320"
   opacity="1.000000"
   stroke="none"
   d=" M43.283905,202.943542   C38.356308,212.437042 18.646889,216.411331 10.152882,213.926453   C7.787424,213.234451 6.051420,211.675278 5.283797,209.288803   C4.750148,207.629684 5.699887,206.422913 6.891698,205.392349   C8.223851,204.240417 8.695966,205.516861 9.631407,206.156830   C15.362298,210.077438 31.784365,207.116287 36.179745,201.523621   C38.136890,199.033356 36.567860,197.808075 34.463516,197.133377   C30.187925,195.762512 25.797434,194.748459 21.527555,193.361786   C17.866489,192.172836 13.860149,190.864807 13.144181,186.430634   C12.399574,181.819107 15.107206,178.440079 18.659000,175.934631   C27.917849,169.403366 38.105709,165.795303 49.601181,166.882233   C51.874882,167.097229 54.675343,167.272873 54.953423,170.279358   C55.268764,173.688644 52.306759,174.324783 49.882469,174.551193   C47.313713,174.791107 44.411289,176.372864 42.142967,173.346649   C41.268787,172.180374 39.621376,172.863831 38.359379,173.150269   C32.409351,174.500748 27.039000,177.103348 22.398294,181.061722   C18.897013,184.048233 19.198692,185.504486 23.665997,187.113800   C28.203060,188.748245 32.931652,189.892731 37.373066,191.740463   C42.976868,194.071793 44.438194,197.081375 43.283905,202.943542  z"
   id="path7"
   style="fill:#000000;fill-opacity:1" />
<path
   fill="#272522"
   opacity="1.000000"
   stroke="none"
   d=" M248.347046,191.565048   C250.694626,190.749191 252.837036,189.339905 255.189438,188.685928   C259.022858,187.620148 261.316345,189.704987 260.197205,193.478058   C257.541595,202.431396 252.232330,209.490341 243.846222,213.929916   C242.067154,214.871780 239.593338,215.667557 238.134323,214.296066   C234.963730,211.315643 234.020615,213.920944 232.744202,215.930679   C229.533127,220.986557 226.406021,226.095764 223.192871,231.150314   C222.528000,232.196228 221.967712,233.829453 220.220688,232.993118   C218.755585,232.291733 218.766129,230.751205 219.131973,229.480255   C219.538864,228.066696 220.228424,226.693726 221.007065,225.434204   C229.580353,211.566101 238.194336,197.723160 246.800659,183.875488   C247.151825,183.310455 247.478638,182.714981 247.916107,182.221786   C249.165985,180.812668 250.214417,177.950455 252.419662,179.419037   C254.815674,181.014618 252.274094,182.883087 251.371307,184.456833   C250.297241,186.329102 249.030045,188.090591 247.709198,190.205429   C247.377670,191.122559 247.364655,191.583908 248.347046,191.565048  z"
   id="path8"
   style="fill:#000000;fill-opacity:1" />
<path
   fill="#262723"
   opacity="1.000000"
   stroke="none"
   d=" M339.042480,198.407806   C340.281616,198.158554 341.262360,197.994141 342.247345,197.861008   C343.318359,197.716263 344.306885,197.960907 344.755219,199.008606   C345.370697,200.446777 344.251740,201.153229 343.268860,201.751083   C341.004425,203.128403 338.655487,204.368301 336.409546,205.773834   C335.411743,206.398285 334.565643,207.367828 334.899384,208.673248   C335.326813,210.345276 336.825195,210.266174 338.140137,210.290756   C342.269073,210.367935 345.251648,207.896606 348.352295,205.666840   C349.349792,204.949478 350.362946,203.188400 351.650482,204.367935   C352.758636,205.383148 352.404846,207.154190 351.550629,208.517090   C348.410156,213.527725 337.457458,216.493332 332.066559,213.807938   C328.024353,211.794388 327.642761,207.141312 331.536102,204.115021   C333.167511,202.846909 334.064789,202.063110 333.246277,199.789322   C332.206024,196.899414 334.073853,194.663406 336.052795,192.818222   C339.303101,189.787643 343.232941,188.040115 347.643829,187.551392   C349.779785,187.314743 352.352051,187.002686 352.149048,190.389374   C351.983429,193.151566 349.143921,195.491486 347.618286,194.532883   C343.259277,191.794022 341.482910,195.268387 338.651733,197.255035   C338.696930,197.795731 338.806915,198.127731 339.042480,198.407806  z"
   id="path9"
   style="fill:#000000;fill-opacity:1" />
<path
   fill="#05BC95"
   opacity="1.000000"
   stroke="none"
   d=" M136.940521,38.843994   C132.937454,41.655331 127.070488,42.736763 129.529953,49.633205   C130.149124,51.369381 128.331329,51.272598 127.223824,50.997993   C121.637062,49.612747 115.866470,48.879879 109.633621,46.280319   C116.517746,41.373882 122.823654,36.854687 129.155807,32.372562   C137.855896,26.214338 146.633423,20.163252 155.249649,13.890277   C157.608002,12.173303 159.838348,11.604636 162.665131,12.187075   C179.622482,15.681008 196.603897,19.058031 213.561081,22.552799   C214.732483,22.794214 217.022629,22.536663 216.802292,24.052235   C216.446808,26.497173 213.877472,27.604229 211.832184,28.479809   C210.316650,29.128593 210.344971,27.220753 210.065369,26.198116   C209.664978,24.733789 209.337906,22.873232 207.422012,23.202522   C205.134567,23.595678 205.707840,25.667202 205.871231,27.277313   C205.988602,28.433878 206.208817,29.586212 206.468384,30.720938   C207.152603,33.712017 204.706985,34.701935 202.887451,35.286339   C200.562302,36.033134 201.069595,33.495804 200.820465,32.302483   C200.133240,29.010799 197.825378,28.297548 194.973358,27.971018   C176.258286,25.828333 158.567459,29.848324 141.354630,36.786495   C139.966080,37.346191 138.635330,38.049274 136.940521,38.843994  z"
   id="path10" />
<path
   fill="#05BE96"
   opacity="1.000000"
   stroke="none"
   d=" M169.144897,52.013809   C158.989502,53.838959 150.713028,58.544426 142.919434,64.442818   C138.379089,67.879066 138.185852,67.635895 136.964081,62.278683   C136.153091,58.722652 135.613602,55.082294 134.507965,51.621731   C133.220718,47.592712 134.776688,45.560398 138.308701,43.853279   C155.438232,35.574085 173.474594,32.083172 192.438278,32.994164   C195.488358,33.140682 196.795975,34.431778 197.230011,37.453186   C197.818878,41.552216 198.798355,45.605862 199.801529,49.631313   C200.637497,52.985744 199.761795,54.357712 196.174484,53.543438   C193.262085,52.882362 190.302307,52.433105 187.376663,51.826572   C181.427170,50.593143 175.497147,50.726852 169.144897,52.013809  z"
   id="path11" />
<path
   fill="#05BD96"
   opacity="1.000000"
   stroke="none"
   d=" M188.027206,73.033409   C192.255020,81.121544 194.530762,89.393173 195.652679,98.056458   C196.016037,100.862297 195.455032,101.970192 192.437119,101.925476   C183.455063,101.792419 174.468475,101.799370 165.486328,101.932037   C162.546860,101.975456 161.676270,100.863571 162.061661,98.078995   C163.873596,84.987259 168.397354,73.016029 176.217041,62.277821   C178.432861,59.235001 179.940170,59.712605 181.638260,62.487137   C183.719421,65.887596 185.791992,69.293320 188.027206,73.033409  z"
   id="path12" />
<path
   fill="#05BF97"
   opacity="1.000000"
   stroke="none"
   d=" M176.328033,147.727356   C168.249619,136.921021 163.915344,125.019890 162.091934,112.099724   C161.685852,109.222397 162.209045,107.869888 165.595016,107.951065   C174.578812,108.166451 183.572021,108.085808 192.559769,107.979210   C195.075211,107.949379 196.045593,108.481140 195.731079,111.314934   C194.244202,124.711441 189.394226,136.737640 181.563553,147.634567   C180.011292,149.794662 178.492432,151.437668 176.328033,147.727356  z"
   id="path13" />
<path
   fill="#05BD96"
   opacity="1.000000"
   stroke="none"
   d=" M165.600006,67.666565   C160.386459,77.504013 156.899475,87.520424 156.053467,98.303093   C155.829437,101.158203 154.621948,101.965805 151.975433,101.912148   C146.315521,101.797409 140.647339,101.761719 134.990601,101.943565   C131.620026,102.051918 131.283218,100.657700 131.660294,97.690620   C134.109375,78.420319 150.805206,61.305965 171.057449,58.293541   C169.130447,61.600544 167.456726,64.472862 165.600006,67.666565  z"
   id="path14" />
<path
   fill="#05BE97"
   opacity="1.000000"
   stroke="none"
   d=" M146.284348,139.721481   C138.236725,131.786621 133.317596,122.639816 131.598969,111.749123   C131.139420,108.836906 131.854385,107.888733 134.805130,107.972214   C140.612457,108.136505 146.429138,108.089577 152.239197,107.981705   C154.639847,107.937126 155.807510,108.581688 156.019806,111.245552   C157.070160,124.424957 161.638550,136.424164 168.656677,147.548615   C169.358521,148.661118 170.550766,149.826935 169.791260,151.141953   C168.759430,152.928513 167.428726,151.210449 166.340378,150.927216   C158.819687,148.970047 152.184036,145.348129 146.284348,139.721481  z"
   id="path15" />
<path
   fill="#05BD96"
   opacity="1.000000"
   stroke="none"
   d=" M219.414139,79.697678   C222.987289,85.465134 224.997635,91.403175 226.006531,97.728897   C226.469894,100.634224 225.795013,102.057289 222.479446,101.940720   C216.822372,101.741829 211.152679,101.843544 205.489349,101.909103   C203.338760,101.933990 202.071640,101.345551 201.876144,98.917702   C200.739883,84.806602 195.792511,72.070557 187.805084,60.450424   C187.464905,59.955547 187.384659,59.282001 186.980942,58.098331   C201.189316,60.650978 211.419312,68.158798 219.414139,79.697678  z"
   id="path16" />
<path
   fill="#05BE96"
   opacity="1.000000"
   stroke="none"
   d=" M201.310303,116.281876   C202.346741,108.020714 202.346741,108.019112 210.474884,108.014008   C214.136642,108.011711 217.822205,108.279388 221.453873,107.949799   C225.555313,107.577583 226.661789,109.076195 225.934219,112.979034   C222.985336,128.797592 214.167603,140.223587 200.094803,147.667358   C197.039688,149.283371 193.846024,150.851028 190.275238,151.174103   C189.375610,151.255508 188.355133,152.196777 187.611816,150.943008   C186.925400,149.785202 188.042908,149.137512 188.540482,148.408173   C195.113190,138.774063 199.334381,128.208237 201.310303,116.281876  z"
   id="path17" />
<path
   fill="#07B590"
   opacity="1.000000"
   stroke="none"
   d=" M209.326569,43.693779   C210.336700,50.099731 212.515396,55.877407 212.889145,62.317818   C208.403641,60.635139 205.542892,58.247967 205.142380,53.418163   C204.912399,50.644821 203.991165,47.926563 203.351013,45.190548   C203.085785,44.057018 202.616470,42.832600 203.477325,41.872726   C204.563370,40.661751 205.764969,38.894268 207.396790,39.142670   C209.457779,39.456409 208.663391,41.853149 209.326569,43.693779  z"
   id="path18" />
<path
   fill="#08AF8B"
   opacity="1.000000"
   stroke="none"
   d=" M151.682831,195.626099   C153.799667,194.352829 155.465668,192.883209 158.519531,193.170822   C155.182983,199.880051 150.099945,204.499084 144.482773,208.644745   C143.953812,209.035172 143.031067,209.167358 142.802979,208.412323   C142.593399,207.718674 142.710968,206.762009 143.039673,206.096802   C145.038651,202.051453 147.608200,198.439636 151.682831,195.626099  z"
   id="path19"
   style="fill:#04c098;fill-opacity:1" />
<path
   fill="#08AE8A"
   opacity="1.000000"
   stroke="none"
   d=" M132.057190,192.748291   C131.585312,189.466049 133.761215,187.099075 135.272171,184.626648   C138.401520,179.505951 141.649933,174.378006 146.652771,170.673645   C143.457489,179.052963 138.188522,186.073318 132.057190,192.748291  z"
   id="path20"
   style="fill:#04c098;fill-opacity:1" />
<path
   fill="#04C098"
   opacity="1.000000"
   stroke="none"
   d=" M180.990723,191.015533   C180.713196,191.384689 180.215469,191.533936 179.717743,191.683197   C179.801117,191.357239 179.884491,191.031281 180.146515,190.533081   C180.473618,190.505768 180.622055,190.650696 180.990723,191.015533  z"
   id="path21" />
<path
   fill="#04C098"
   opacity="1.000000"
   stroke="none"
   d=" M183.266937,195.467484   C183.554764,195.435181 183.771957,195.616409 183.743927,195.670441   C183.511597,196.118439 183.271484,196.092102 183.266937,195.467484  z"
   id="path22" />
<path
   fill="#06B691"
   opacity="1.000000"
   stroke="none"
   d=" M110.193024,194.097992   C112.163445,193.045914 113.826256,191.021835 115.699959,193.206161   C117.186821,194.939499 115.815872,196.707779 114.898079,198.187866   C112.359795,202.281281 109.413567,206.060455 105.235359,208.640244   C104.318001,209.206680 103.279953,210.191589 102.086685,209.352509   C100.756981,208.417496 101.028763,206.977875 101.497147,205.741943   C103.231499,201.165466 106.055977,197.356110 110.193024,194.097992  z"
   id="path23"
   style="fill:#04c098;fill-opacity:1" />
<path
   fill="#04C098"
   opacity="1.000000"
   stroke="none"
   d=" M82.961861,193.950256   C82.810303,194.828049 82.292427,194.957047 81.626961,194.693512   C81.767784,194.362701 81.908607,194.031876 82.272705,193.552246   C82.495995,193.403427 82.808067,193.766708 82.961861,193.950256  z"
   id="path24" />
<path
   fill="#04C098"
   opacity="1.000000"
   stroke="none"
   d=" M65.241913,192.396866   C65.362198,192.294205 65.457176,192.629059 65.457176,192.629059   C65.457176,192.629059 65.121620,192.499527 65.241913,192.396866  z"
   id="path25" />
<path
   fill="#04C098"
   opacity="1.000000"
   stroke="none"
   d=" M273.148041,192.228775   C272.864746,192.629578 272.197388,192.936630 271.691925,192.765488   C271.099548,192.564911 271.482788,192.035141 271.998505,191.501343   C272.415497,191.519974 272.625519,191.721725 273.148041,192.228775  z"
   id="path26" />
<path
   fill="#04C098"
   opacity="1.000000"
   stroke="none"
   d=" M321.963806,190.995575   C321.609406,191.884552 321.207306,192.049026 321.263306,190.694794   C321.506897,190.599014 321.638611,190.710983 321.963806,190.995575  z"
   id="path27" />
<path
   fill="#04C098"
   opacity="1.000000"
   stroke="none"
   d=" M324.269226,195.408234   C324.552002,195.370209 324.769196,195.545929 324.741669,195.602493   C324.521393,196.054993 324.284058,196.033279 324.269226,195.408234  z"
   id="path28" />
<path
   fill="#04C098"
   opacity="1.000000"
   stroke="none"
   d=" M275.241638,197.812454   C275.713745,197.201492 275.801849,197.332352 275.241638,197.812454  z"
   id="path29" />
<path
   fill="#07B590"
   opacity="1.000000"
   stroke="none"
   d=" M254.137573,195.158020   C252.307663,201.592468 248.031967,205.579422 242.804062,208.696732   C241.547394,209.446060 239.831573,210.273239 238.715073,208.882690   C237.625824,207.526062 239.309113,206.450974 240.104065,205.625031   C243.306580,202.297607 246.588074,199.031616 250.040817,195.968872   C251.028183,195.093033 252.145920,192.985138 254.137573,195.158020  z"
   id="path30"
   style="fill:#04c098;fill-opacity:1" />
<path
   fill="#04C098"
   opacity="1.000000"
   stroke="none"
   d=" M248.241364,191.488800   C247.871933,191.796646 247.285934,191.773987 246.699951,191.751328   C246.840210,191.430206 246.980469,191.109100 247.346283,190.649384   C247.722839,190.726624 247.873840,190.942474 248.241364,191.488800  z"
   id="path31" />
<path
   fill="#04C098"
   opacity="1.000000"
   stroke="none"
   d=" M339.084717,198.109177   C338.692566,198.835358 338.357666,198.696564 338.362854,197.708252   C338.579224,197.648682 338.724854,197.778931 339.084717,198.109177  z"
   id="path32" />
<path
   style="fill:none;stroke:#000000;stroke-width:1px;stroke-linecap:butt;stroke-linejoin:miter;stroke-opacity:1"
   d="m 275.42856,197.40791 c 0.002,0.0124 4.9e-4,0.0256 0.005,0.0372 0.004,0.0105 0.0142,0.0177 0.0213,0.0266 0.0142,0.0177 0.0283,0.0354 0.0425,0.0531 0.0142,0.0177 0.0294,0.0346 0.0425,0.0531 0.008,0.0117 0.0123,0.026 0.0213,0.0372 0.006,0.007 0.015,0.01 0.0213,0.0159 0.003,0.003 0.003,0.007 0.005,0.0106 10e-4,0.002 0.004,0.004 0.005,0.005"
   id="path35" /><path
   style="fill:none;stroke:#000000;stroke-width:1px;stroke-linecap:butt;stroke-linejoin:miter;stroke-opacity:1"
   d="m 324.31299,195.45274 c 0.0283,0.0213 0.0585,0.0402 0.085,0.0638 0.006,0.005 0.006,0.0152 0.0106,0.0212 0.0128,0.0154 0.0283,0.0283 0.0425,0.0425 0.007,0.007 0.0142,0.0142 0.0213,0.0212 0.007,0.007 0.0152,0.0132 0.0213,0.0213 0.005,0.006 0.007,0.0142 0.0106,0.0213"
   id="path36" /><path
   style="fill:none;stroke:#000000;stroke-width:1px;stroke-linecap:butt;stroke-linejoin:miter;stroke-opacity:1"
   d="m 324.9718,196.20718 c -0.50839,-0.55923 -0.31667,-0.28693 -0.6163,-0.78631 -0.0678,-0.11305 -0.0453,-0.0693 -0.0744,-0.12751"
   id="path37" /><path
   style="fill:none;stroke:#000000;stroke-width:1px;stroke-linecap:butt;stroke-linejoin:miter;stroke-opacity:1"
   d="m 183.19766,195.4449 c 0.0783,0.15661 0.0355,0.11067 0.0902,0.1653 0.015,0.015 0.0327,0.0278 0.0451,0.0451 0.013,0.0182 0.0161,0.0426 0.0301,0.0601 0.007,0.009 0.0211,0.008 0.0301,0.015 0.017,0.0127 0.0274,0.0333 0.0451,0.0451 0.0243,0.0162 0.0523,0.0268 0.0751,0.0451 0.0277,0.0221 0.0482,0.0521 0.0751,0.0751 0.0232,0.0199 0.0658,0.0203 0.0902,0.03 0.0553,0.0221 -0.039,0.015 0.0451,0.015"
   id="path38" /></svg>
